<?xml version="1.0" standalone="no"?>
<!DOCTYPE svg PUBLIC "-//W3C//DTD SVG 1.1//EN" "http://www.w3.org/Graphics/SVG/1.1/DTD/svg11.dtd" >
<svg xmlns="http://www.w3.org/2000/svg">
<metadata>
<json>
<![CDATA[
{
	"fontFamily": "azure",
	"majorVersion": 1,
	"minorVersion": 0,
	"description": "Azure icons\nFont generated by IcoMoon.",
	"copyright": "GPL",
	"license": "GPL",
	"fontURL": "https://www.intility.no",
	"version": "Version 1.0",
	"fontId": "azure",
	"psName": "azure",
	"subFamily": "Regular",
	"fullName": "azure"
}
]]>
</json>
</metadata>
<defs>
<font id="azure" horiz-adv-x="1024">
<font-face units-per-em="1024" ascent="960" descent="-64" />
<missing-glyph horiz-adv-x="1024" />
<glyph unicode="&#x20;" horiz-adv-x="512" d="" />
<glyph unicode="&#xe900;" d="M109.796 818.631l68.836 80.213c6.181 6.993 15.172 11.38 25.188 11.38 0.145 0 0.29-0.001 0.434-0.003h660.458c1.371 0.145 2.961 0.227 4.571 0.227 25.449 0 46.080-20.631 46.080-46.080 0-0.48-0.007-0.958-0.022-1.435l0.002 0.070v-824.889c-0.064-9.779-4.446-18.522-11.334-24.426l-0.044-0.037-73.956-67.698h-675.271l-46.080 18.773z" />
<glyph unicode="&#xe901;" d="M165.547 819.2l42.098 47.787c4.837 5.815 11.875 9.656 19.818 10.235l0.093 0.005h619.52c16.338 0 29.582-13.244 29.582-29.582v0-783.929c0.001-0.091 0.002-0.199 0.002-0.307 0-8.659-3.72-16.449-9.649-21.859l-0.023-0.021-65.991-59.733z" />
<glyph unicode="&#xe902;" d="M796.444 819.769h-682.667c-1.885 0-3.413-1.528-3.413-3.413v0-853.333c0.318-12.006 10.126-21.618 22.179-21.618 0.003 0 0.005 0 0.008 0h663.893c11.939 0 21.618 9.679 21.618 21.618v0 834.56c0 0.002 0 0.005 0 0.007 0 12.053-9.612 21.862-21.588 22.179l-0.029 0.001z" />
<glyph unicode="&#xe903;" d="M284.444 585.956h342.471c8.797 0 15.929-7.132 15.929-15.929v-103.538c0-8.797-7.132-15.929-15.929-15.929h-342.471c-8.797 0-15.929 7.132-15.929 15.929v103.538c0 8.797 7.132 15.929 15.929 15.929z" />
<glyph unicode="&#xe904;" glyph-name="Add-filter" data-tags="Add filter" d="M284.444 682.667v227.556h-56.889v-227.556h-227.556v-56.889h227.556v-227.556h56.889v227.556h227.556v56.889zM398.222 512v-85.333l227.556-216.178v-267.378h170.667v267.378l227.556 216.178v85.333h-625.778zM739.556 227.556v-227.556h-56.889v227.556l-227.556 210.489v17.067h512v-17.067l-227.556-210.489z" />
<glyph unicode="&#xe905;" d="M995.556 401.636c-2.137 108.581-82.969 197.65-187.701 212.627l-1.17 0.137c-4.711 148.693-126.379 267.439-275.781 267.439-2.046 0-4.087-0.022-6.123-0.067l0.304 0.005c-0.869 0.010-1.896 0.015-2.924 0.015-122.192 0-226.389-77.049-266.656-185.213l-0.641-1.967c-127.413-16.709-225.113-123.442-227.552-253.476l-0.004-0.249c4.064-143.242 121.153-257.813 265.002-257.813 2.636 0 5.263 0.038 7.88 0.115l-0.384-0.009c3.574-0.267 7.743-0.419 11.947-0.419s8.372 0.152 12.5 0.451l-0.553-0.032h440.889c1.71-0.285 3.68-0.447 5.689-0.447s3.979 0.163 5.899 0.475l-0.21-0.028c120.369 1.259 217.688 98.18 219.589 218.273l0.002 0.18z" />
<glyph unicode="&#xe906;" d="M826.596 77.369l-113.778-121.742c-2.676-2.673-6.371-4.326-10.453-4.326-7.286 0-13.341 5.267-14.565 12.202l-0.013 0.089-68.836 335.644c-0.029 0.348-0.046 0.752-0.046 1.161 0 5.231 2.715 9.828 6.813 12.457l0.059 0.035 75.093 30.72c1.607 0.652 3.47 1.030 5.422 1.030 5.855 0 10.916-3.402 13.313-8.337l0.039-0.088 110.933-244.622c0.383-1.201 0.604-2.582 0.604-4.015 0-4.054-1.767-7.695-4.572-10.196l-0.014-0.012z" />
<glyph unicode="&#xe907;" d="M455.111 77.369l113.778-121.742c2.676-2.673 6.371-4.326 10.453-4.326 7.286 0 13.341 5.267 14.565 12.202l0.013 0.089 68.836 335.644c0.128 0.732 0.202 1.575 0.202 2.434 0 5.975-3.543 11.123-8.643 13.457l-75.186 30.758c-1.607 0.652-3.47 1.030-5.422 1.030-5.855 0-10.916-3.402-13.313-8.337l-0.039-0.088-110.933-244.622c-0.558-1.433-0.881-3.091-0.881-4.826 0-4.922 2.605-9.236 6.511-11.638l0.059-0.034z" />
<glyph unicode="&#xe908;" d="M658.773 597.334l14.791 12.516c3.985 3.274 9.137 5.259 14.753 5.259 7.051 0 13.371-3.129 17.648-8.074l0.025-0.030c1.686-1.926 3.038-4.194 3.936-6.68l0.046-0.147 6.827-18.204c3.616-8.886 12.185-15.036 22.191-15.036 1.203 0 2.385 0.089 3.54 0.26l-0.131-0.016 18.773 3.413c1.143 0.198 2.459 0.312 3.802 0.312 11.383 0 20.861-8.154 22.913-18.94l0.023-0.146c0.272-1.197 0.427-2.571 0.427-3.982s-0.156-2.785-0.451-4.107l0.023 0.125-3.413-18.773c-0.156-1.024-0.244-2.206-0.244-3.409 0-10.005 6.15-18.574 14.876-22.133l0.16-0.058 18.204-6.258c8.878-3.62 15.020-12.185 15.020-22.185 0-2.856-0.501-5.594-1.42-8.133l0.053 0.166c-1.228-2.617-2.555-4.856-4.068-6.952l0.086 0.126-12.516-14.222c-3.197-4.027-5.129-9.183-5.129-14.791s1.932-10.764 5.166-14.84l-0.038 0.049 12.516-14.791c3.273-3.914 5.261-9 5.261-14.551 0-7.229-3.371-13.671-8.627-17.839l-0.047-0.036c-1.789-1.595-3.855-2.932-6.108-3.924l-0.15-0.059-18.204-6.827c-8.915-3.218-15.172-11.606-15.172-21.455 0-1.466 0.139-2.899 0.403-4.287l-0.023 0.142 3.413-18.773c0.254-1.259 0.399-2.707 0.399-4.188 0-11.19-8.284-20.445-19.055-21.967l-0.118-0.014c-1.197-0.272-2.571-0.427-3.982-0.427s-2.785 0.156-4.107 0.451l0.125-0.023h-18.773c-1.246 0.242-2.68 0.381-4.145 0.381-9.849 0-18.237-6.257-21.405-15.013l-0.050-0.158-6.827-17.636c-3.222-8.906-11.606-15.156-21.449-15.156-2.924 0-5.72 0.552-8.288 1.556l0.155-0.053c-2.632 0.944-4.901 2.296-6.851 4.003l0.024-0.021-14.222 14.222c-3.952 3.396-9.13 5.463-14.791 5.463s-10.84-2.067-14.821-5.488l0.030 0.025-14.791-11.947c-3.957-3.412-9.147-5.491-14.824-5.491-7.076 0-13.398 3.23-17.572 8.296l-0.031 0.039c-1.92 1.789-3.32 4.112-3.963 6.733l-0.019 0.094-6.827 17.636c-3.002 8.935-11.301 15.257-21.077 15.257-1.602 0-3.164-0.17-4.669-0.492l0.146 0.026-18.773-3.413c-1.114-0.189-2.398-0.296-3.706-0.296-11.58 0-21.19 8.439-23.013 19.503l-0.018 0.135c-0.267 1.111-0.42 2.387-0.42 3.698s0.153 2.587 0.442 3.81l-0.022-0.112 3.413 18.773c0.242 1.246 0.381 2.68 0.381 4.145 0 9.849-6.257 18.237-15.013 21.405l-0.158 0.050-17.636 6.827c-9.992 3.010-17.145 12.13-17.145 22.921 0 1.96 0.236 3.865 0.681 5.687l-0.034-0.164c1.228 2.617 2.555 4.856 4.068 6.952l-0.086-0.126 12.516 14.791c3.197 4.027 5.129 9.183 5.129 14.791s-1.932 10.764-5.166 14.84l0.038-0.049-12.516 14.222c-3.302 3.994-5.305 9.168-5.305 14.81 0 7.333 3.384 13.875 8.675 18.151l0.044 0.035c1.823 1.734 4.155 2.95 6.748 3.402l0.078 0.011 17.636 6.827c8.886 3.616 15.036 12.185 15.036 22.191 0 1.203-0.089 2.385-0.26 3.54l0.016-0.131-1.138 17.067c-0.198 1.143-0.312 2.459-0.312 3.802 0 11.383 8.154 20.861 18.94 22.913l0.146 0.023h7.964l18.773-3.413c1.135-0.196 2.441-0.307 3.774-0.307 9.926 0 18.404 6.2 21.772 14.939l0.054 0.159 6.827 18.773c3.449 8.843 11.899 14.995 21.786 14.995 2.795 0 5.475-0.492 7.958-1.393l-0.162 0.051 6.827-3.982 14.791-12.516c3.591-2.37 7.996-3.78 12.73-3.78 6.337 0 12.084 2.527 16.288 6.629l-0.005-0.005z" />
<glyph unicode="&#xe909;" d="M778.809 425.529c0-74.149-60.109-134.258-134.258-134.258s-134.258 60.109-134.258 134.258c0 74.149 60.109 134.258 134.258 134.258s134.258-60.109 134.258-134.258z" />
<glyph unicode="&#xe90a;" d="M995.556 796.445v-616.107c0-18.223-14.773-32.996-32.996-32.996v0h-257.138c-0.006 0-0.012 0-0.019 0-4.513 0-8.207-3.503-8.513-7.938l-0.001-0.027v-99.556c0.004-0.129 0.006-0.28 0.006-0.432 0-8.797-7.132-15.929-15.929-15.929-3.657 0-7.026 1.232-9.714 3.304l0.037-0.028-154.738 118.898h-455.111c-18.223 0-32.996 14.773-32.996 32.996v617.813c-0.003 0.169-0.005 0.369-0.005 0.569 0 18.223 14.773 32.996 32.996 32.996 0.002 0 0.003 0 0.005 0h901.12c0.001 0 0.003 0 0.005 0 18.223 0 32.996-14.773 32.996-32.996 0-0.2-0.002-0.4-0.005-0.599v0.030z" />
<glyph unicode="&#xe90b;" d="M542.72 390.827h-65.991c-0.349-0.021-0.757-0.033-1.168-0.033-10.922 0-19.848 8.55-20.448 19.322l-0.002 0.053-11.378 333.369c-0.005 0.169-0.008 0.369-0.008 0.569 0 10.997 8.915 19.911 19.911 19.911 0.003 0 0.006 0 0.009 0h96.711c0.010 0 0.021 0 0.033 0 10.997 0 19.911-8.915 19.911-19.911 0-0.4-0.012-0.798-0.035-1.192l0.003 0.054-17.636-333.369c-0.619-10.496-9.282-18.773-19.879-18.773-0.011 0-0.023 0-0.034 0h0.002z" />
<glyph unicode="&#xe90c;" d="M497.209 334.507h26.738c19.166 0 34.702-15.537 34.702-34.702v-26.738c0-19.166-15.537-34.702-34.702-34.702h-26.738c-19.166 0-34.702 15.537-34.702 34.702v26.738c0 19.166 15.537 34.702 34.702 34.702z" />
<glyph unicode="&#xe90d;" glyph-name="All-resources" data-tags="All resources" d="M368.64 239.503h273.067v-273.067h-273.067zM50.062 603.591h273.067v273.067h-234.951c-21.051 0-38.116-17.065-38.116-38.116v0zM88.178-33.564h234.951v273.067h-273.067v-234.951c0-21.051 17.065-38.116 38.116-38.116v0zM50.062 285.014h273.067v273.067h-273.067zM687.218-33.564h235.52c20.805 0.32 37.547 17.261 37.547 38.111 0 0.001 0 0.003 0 0.004v0 234.951h-273.067zM368.64 285.014h273.067v273.067h-273.067zM687.218 285.014h273.067v273.067h-273.067zM687.218 876.658v-273.067h273.067v234.951c0 0.001 0 0.003 0 0.004 0 20.851-16.742 37.791-37.517 38.111h-0.030zM368.64 603.591h273.067v273.067h-273.067z" />
<glyph unicode="&#xe90e;" d="M253.724 708.836h711.68c22.936 0 41.529-18.593 41.529-41.529v0.569c0-22.936-18.593-41.529-41.529-41.529h-711.68c-22.936 0-41.529 18.593-41.529 41.529v-0.569c0 22.936 18.593 41.529 41.529 41.529z" />
<glyph unicode="&#xe90f;" d="M253.724 459.663h711.68c22.936 0 41.529-18.593 41.529-41.529v0.569c0-22.936-18.593-41.529-41.529-41.529h-711.68c-22.936 0-41.529 18.593-41.529 41.529v-0.569c0 22.936 18.593 41.529 41.529 41.529z" />
<glyph unicode="&#xe910;" d="M253.724 200.818h711.68c22.936 0 41.529-18.593 41.529-41.529v0.569c0-22.936-18.593-41.529-41.529-41.529h-711.68c-22.936 0-41.529 18.593-41.529 41.529v-0.569c0 22.936 18.593 41.529 41.529 41.529z" />
<glyph unicode="&#xe911;" d="M93.298 742.969c41.473 0 75.093-33.62 75.093-75.093s-33.62-75.093-75.093-75.093c-41.473 0-75.093 33.62-75.093 75.093s33.62 75.093 75.093 75.093z" />
<glyph unicode="&#xe912;" d="M93.298 493.227c41.473 0 75.093-33.62 75.093-75.093s-33.62-75.093-75.093-75.093c-41.473 0-75.093 33.62-75.093 75.093s33.62 75.093 75.093 75.093z" />
<glyph unicode="&#xe913;" d="M93.298 234.951c41.473 0 75.093-33.62 75.093-75.093s-33.62-75.093-75.093-75.093c-41.473 0-75.093 33.62-75.093 75.093s33.62 75.093 75.093 75.093z" />
<glyph unicode="&#xe914;" glyph-name="Analysis-Services" data-tags="Analysis Services" d="M602.792 635.641v-94.522l-181.276 57.872v223.592h-421.516v-323.164h208.659l22.546-145.473h-158.359v-323.175h421.516v224.527l108.429 58.054v-0.882h421.516v323.172zM866.425 439.845c-6.669-22.53-27.179-38.688-51.462-38.688-16.388 0-31.057 7.358-40.884 18.952l-0.064 0.078-438.985-235.049c1.352-4.48 2.13-9.628 2.13-14.957 0-29.589-23.987-53.575-53.575-53.575s-53.575 23.987-53.575 53.575c0 23.068 14.58 42.731 35.027 50.278l0.371 0.12-9.776 63.116-47.024 303.368c-28.622 1.2-51.372 24.695-51.372 53.504 0 29.574 23.974 53.548 53.548 53.548s53.548-23.974 53.548-53.548c0-0.765-0.016-1.527-0.048-2.284l0.004 0.108q-0.065-1.581-0.222-3.156l501.369-160.073c8.244 19.626 27.307 33.157 49.531 33.157 29.588 0 53.573-23.986 53.573-53.573 0-5.309-0.772-10.437-2.21-15.279l0.097 0.379zM761.412 453.056l-504.153 160.96c-5.082-8.841-12.343-15.92-21.066-20.642l-0.282-0.14c-1.392-0.753-3.147-1.574-4.948-2.308l-0.386-0.139 36.713-236.845 10.88-70.253 9.302-60.004c4.055-0.308 7.812-1.005 11.415-2.061l-0.388 0.098c10.491-3.085 19.353-8.991 25.989-16.839l0.065-0.079 438.985 235.041c-1.197 3.919-1.961 8.444-2.12 13.123l-0.002 0.089zM602.792 368.941l-108.426-58.050v43.055h-213.552l-22.546 145.473h163.249v48.125l181.276-57.872z" />
<glyph unicode="&#xe915;" d="M800.010 554.667c31.007 0 60.088-5.919 87.245-17.756s50.831-27.832 71.004-48.005 36.168-43.827 48.005-71.004 17.736-56.238 17.736-87.245-5.919-60.088-17.756-87.245-27.832-50.831-48.005-71.004-43.827-36.168-71.004-48.005-56.259-17.756-87.245-17.756h-256c-31.007 0-60.088 5.919-87.245 17.756s-50.831 27.832-71.004 48.005-36.168 43.827-48.005 71.004-17.756 56.259-17.756 87.245 5.919 60.088 17.756 87.245 27.832 50.831 48.005 71.004 43.827 36.168 71.004 48.005 56.259 17.756 87.245 17.756h32.010v-64c-25.334 0-49.582-2.908-72.745-8.745s-43.581-15.176-61.256-27.996-31.744-29.327-42.25-49.5-15.749-44.749-15.749-73.748c0-21.996 4.26-42.66 12.759-61.993s20.009-36.25 34.509-50.749 31.416-26.010 50.749-34.509 39.997-12.759 61.993-12.759h256c21.996 0 42.66 4.26 61.993 12.759s36.25 20.009 50.749 34.509 26.010 31.416 34.509 50.749 12.759 39.997 12.759 61.993c0 29-5.243 53.576-15.749 73.748s-24.576 36.659-42.25 49.5-38.093 22.159-61.256 27.996-47.411 8.745-72.745 8.745v64h31.99z" />
<glyph unicode="&#xe916;" d="M448 298.667v64c25.334 0 49.582 2.908 72.745 8.745s43.581 15.176 61.256 27.996 31.744 29.327 42.25 49.5 15.749 44.749 15.749 73.748c0 21.996-4.26 42.66-12.759 61.993s-20.009 36.25-34.509 50.749-31.416 26.010-50.749 34.509-39.977 12.759-61.972 12.759h-256c-21.996 0-42.66-4.26-61.993-12.759s-36.25-20.009-50.749-34.509-26.010-31.416-34.509-50.749-12.759-39.997-12.759-61.993c0-29 5.243-53.576 15.749-73.748s24.576-36.659 42.25-49.5 38.093-22.159 61.256-27.996 47.411-8.745 72.745-8.745v-64h-32.010c-31.007 0-60.088 5.919-87.245 17.756s-50.831 27.832-71.004 47.985-36.168 43.827-48.005 71.004-17.736 56.259-17.736 87.245 5.919 60.088 17.756 87.245 27.832 50.831 48.005 71.004 43.827 36.168 71.004 48.005 56.259 17.756 87.245 17.756h256c31.007 0 60.088-5.919 87.245-17.756s50.831-27.832 71.004-48.005c20.173-20.173 36.168-43.827 48.005-71.004s17.756-56.259 17.756-87.245-5.919-60.088-17.756-87.245-27.832-50.831-48.005-71.004c-20.173-20.173-43.827-36.168-71.004-48.005s-56.259-17.756-87.245-17.756h-32.010z" />
<glyph unicode="&#xe917;" d="M806.684 603.591c-4.402 148.943-126.196 268.008-275.798 268.008-2.040 0-4.075-0.022-6.105-0.066l0.303 0.005c-0.869 0.010-1.896 0.015-2.924 0.015-122.192 0-226.389-77.049-266.656-185.213l-0.641-1.967c-127.897-18.139-225.337-126.381-226.417-257.594l-0.001-0.112c5.304-142.546 122.141-256.092 265.498-256.092 2.461 0 4.915 0.033 7.36 0.1l-0.36-0.008c3.574-0.267 7.743-0.419 11.947-0.419s8.372 0.152 12.5 0.451l-0.553-0.032h68.267c-3.958 9.384-6.258 20.294-6.258 31.741 0 0.041 0 0.082 0 0.123v-0.006c0.222 15.314 4.418 29.602 11.598 41.939l-0.22-0.41h-97.28c-1.963-0.071-4.269-0.112-6.585-0.112-103.175 0-187.538 80.546-193.638 182.188l-0.026 0.537c0.988 95.404 72.349 173.843 164.59 185.924l0.957 0.102 43.236 6.827 14.222 41.529c30.893 81.427 108.258 138.255 198.896 138.255 0.876 0 1.75-0.005 2.623-0.016l-0.132 0.001c1.407 0.035 3.065 0.055 4.727 0.055 110.126 0 199.95-86.921 204.61-195.9l0.014-0.421v-62.578l62.009-8.533c71.402-9.399 126.274-68.781 128.563-141.424l0.006-0.229c-2.833-80.232-68.423-144.23-149.023-144.498h-69.999c-20.473 103.749-110.723 180.91-218.995 180.91-0.409 0-0.819-0.001-1.228-0.003h0.063c-1.364 0.181-2.941 0.284-4.542 0.284-20.108 0-36.409-16.301-36.409-36.409s16.301-36.409 36.409-36.409c1.601 0 3.178 0.103 4.725 0.304l-0.183-0.019c79.18-5.020 141.499-70.468 141.499-150.471s-62.319-145.451-141.061-150.449l-0.438-0.022c-1.364 0.181-2.941 0.284-4.542 0.284-20.108 0-36.409-16.301-36.409-36.409s16.301-36.409 36.409-36.409c1.601 0 3.178 0.103 4.725 0.304l-0.183-0.019c111.355 0.201 203.548 81.988 220.002 188.763l0.158 1.246h59.733c1.71-0.285 3.68-0.447 5.689-0.447s3.979 0.163 5.899 0.475l-0.21-0.028c119.951 2.202 216.573 99.022 218.451 218.844l0.002 0.179c-2.097 108.725-82.898 197.959-187.686 213.192l-1.185 0.141z" />
<glyph unicode="&#xe918;" d="M474.453 292.978h2.276c48.385 0 87.609-39.224 87.609-87.609v-2.276c0-48.385-39.224-87.609-87.609-87.609h-2.276c-48.385 0-87.609 39.224-87.609 87.609v2.276c0 48.385 39.224 87.609 87.609 87.609z" />
<glyph unicode="&#xe919;" d="M838.554 641.297c0 7.311 1.823 16.384 1.823 23.736-0.702 129.281-105.667 233.812-235.046 233.812-0.844 0-1.686-0.004-2.528-0.013l0.128 0.001c-1.57 0.038-3.419 0.060-5.273 0.060-76.395 0-144.109-37.164-186.050-94.4l-0.452-0.647c-26.123 17.189-58.154 27.419-92.574 27.419-0.848 0-1.695-0.006-2.54-0.019l0.128 0.001c-0.014 0-0.032 0-0.049 0-98.228 0-177.967-79.159-178.905-177.165l-0.001-0.089v-14.602c-60.976-28.86-102.4-89.883-102.4-160.582 0-0.022 0-0.044 0-0.067v0.003c1.275-108.276 89.346-195.559 197.803-195.559 2.41 0 4.81 0.043 7.199 0.129l-0.346-0.010h504.095c2.043-0.076 4.443-0.119 6.853-0.119 108.457 0 196.529 87.283 197.802 195.439l0.001 0.12c0.003 0.409 0.005 0.894 0.005 1.378 0 72.798-44.897 135.11-108.512 160.757l-1.164 0.415z" />
<glyph unicode="&#xe91a;" d="M469.709 220.024l19.251-45.711-43.295-75.776 47.514-47.514 78.213 36.7 45.711-19.251 23.921-71.557 2.417-8.417h67.42l28.262 79.974 45.711 19.251 67.359-34.816 8.417-4.219 47.514 47.514-36.086 74.465 19.251 45.711 71.557 24.044 8.417 2.417v67.4l-79.872 28.262-19.251 45.691 34.816 67.359 4.219 8.417-45.711 47.514-75.776-36.68-45.711 19.251-24.044 71.557-4.26 8.417h-64.41l-28.262-79.974-45.691-19.251-67.359 34.816-8.417 4.219-45.056-54.129 32.481-69.161-19.251-45.711-71.557-24.044-8.417-4.219v-64.287zM587.592 278.351c0 0.006 0 0.013 0 0.020 0 51.487 41.738 93.225 93.225 93.225s93.225-41.738 93.225-93.225c0-51.487-41.738-93.225-93.225-93.225-0.007 0-0.014 0-0.022 0h0.001c-0.312-0.004-0.681-0.006-1.050-0.006-50.899 0-92.16 41.261-92.16 92.16 0 0.369 0.002 0.738 0.007 1.107l-0.001-0.056z" />
<glyph unicode="&#xe91b;" d="M179.589 57.556l17.777-19.026-7.598-45.199 32.031-14.787 31.867 32.256 26.010-1.188 24.822-30.884 2.724-3.727 33.178 12.288-0.594 44.524 19.026 17.777 39.526-4.956 4.895-0.553 14.787 32.010-31.293 30.208 1.188 26.010 30.904 24.822 3.707 2.724-12.288 33.178-44.524-0.594-17.777 19.026 4.977 39.506 0.532 4.915-31.13 15.114-30.72-31.805-26.010 1.188-24.822 30.884-3.604 3.4-31.703-11.674 0.594-44.544-19.026-17.756-44.319 5.345-12.411-34.816 28.549-28.18-1.167-25.948-30.925-24.822-3.379-3.604 11.674-31.703zM227.082 107.671c-1.91 5.029-3.016 10.843-3.016 16.916 0 27.033 21.914 48.947 48.947 48.947s48.947-21.914 48.947-48.947c0-20.965-13.181-38.852-31.708-45.825l-0.337-0.111c-5.114-2.008-11.037-3.172-17.231-3.172-20.918 0-38.737 13.272-45.494 31.855l-0.107 0.337z" />
<glyph unicode="&#xe91c;" d="M162.755 389.25c0 74.875 38.359 133.325 109.588 169.861v14.602c1.988 104.324 87.026 188.133 191.64 188.133 36.482 0 70.583-10.192 99.612-27.885l-0.845 0.479c46.446 63.408 120.63 104.12 204.323 104.12 0.088 0 0.177 0 0.265 0h-0.014c-43.425 38.55-100.925 62.096-163.925 62.096-0.164 0-0.329 0-0.493 0h0.025c-0.201 0.001-0.438 0.001-0.676 0.001-78.152 0-147.469-37.825-190.644-96.166l-0.455-0.643c-26.123 17.189-58.154 27.419-92.574 27.419-0.848 0-1.695-0.006-2.54-0.019l0.128 0.001c-0.014 0-0.032 0-0.049 0-98.228 0-177.967-79.159-178.905-177.165l-0.001-0.089v-14.602c-60.976-28.86-102.4-89.883-102.4-160.582 0-0.022 0-0.044 0-0.067v0.003c0-0.138-0.001-0.301-0.001-0.465 0-92.772 65.227-170.31 152.322-189.254l1.278-0.233c-16.15 28.637-25.665 62.874-25.665 99.334 0 0.394 0.001 0.788 0.003 1.182v-0.061z" />
<glyph unicode="&#xe91d;" d="M322.56 335.076h246.329v-245.76h-246.329zM38.116 662.756h246.329v245.76h-214.471c-18.851 0-34.133-15.282-34.133-34.133v0zM72.249 89.316h212.196v245.76h-248.604v-211.627c0-18.851 15.282-34.133 34.133-34.133v0zM38.116 373.76h246.329v248.036h-248.604zM611.556 89.316h211.627c18.851 0 34.133 15.282 34.133 34.133v0 211.627h-248.036zM327.111 373.76h241.778v248.036h-246.329zM611.556 373.76h241.778v248.036h-244.053zM611.556 906.24v-243.484h241.778v211.627c0 18.851-15.282 34.133-34.133 34.133v0zM327.111 660.48h241.778v248.036h-246.329z" />
<glyph unicode="&#xe91e;" d="M988.16 329.956v-256.569l-220.16-128.569v256.569l220.16 128.569z" />
<glyph unicode="&#xe91f;" d="M988.16 329.956l-220.16-129.138-220.16 129.138 220.16 128.569 220.16-128.569z" />
<glyph unicode="&#xe920;" d="M768 200.818v-256l-220.16 128.569v256.569l220.16-129.138z" />
<glyph unicode="&#xe921;" d="M547.84 73.387l220.16 128v-256.569l-220.16 128.569z" />
<glyph unicode="&#xe922;" d="M988.16 73.387l-220.16 128v-256.569l220.16 128.569z" />
<glyph unicode="&#xe923;" d="M34.133 895.602h955.733c18.851 0 34.133-15.282 34.133-34.133v-657.067c0-18.851-15.282-34.133-34.133-34.133h-955.733c-18.851 0-34.133 15.282-34.133 34.133v657.067c0 18.851 15.282 34.133 34.133 34.133z" />
<glyph unicode="&#xe924;" d="M76.8 831.602h870.4c9.426 0 17.067-7.641 17.067-17.067v-563.2c0-9.426-7.641-17.067-17.067-17.067h-870.4c-9.426 0-17.067 7.641-17.067 17.067v563.2c0 9.426 7.641 17.067 17.067 17.067z" />
<glyph unicode="&#xe925;" d="M850.204 407.552c0-9.111-7.386-16.498-16.498-16.498v0h-369.266c-0.289-0.018-0.628-0.028-0.968-0.028-9.111 0-16.498 7.386-16.498 16.498s7.386 16.498 16.498 16.498c0.341 0 0.679-0.010 1.014-0.031l-0.046 0.002h369.266c0.017 0 0.037 0 0.057 0 9.080 0 16.441-7.361 16.441-16.441 0 0 0 0 0 0v0zM850.204 509.554c0 0 0 0 0 0 0-9.080-7.361-16.441-16.441-16.441-0.020 0-0.040 0-0.060 0h-369.263c-0.289-0.018-0.628-0.028-0.968-0.028-9.111 0-16.498 7.386-16.498 16.498s7.386 16.498 16.498 16.498c0.341 0 0.679-0.010 1.014-0.031l-0.046 0.002h369.266c9.111 0 16.498-7.386 16.498-16.498v0zM850.204 658.432c0-9.111-7.386-16.498-16.498-16.498v0h-619.292c-0.289-0.018-0.628-0.028-0.968-0.028-9.111 0-16.498 7.386-16.498 16.498s7.386 16.498 16.498 16.498c0.341 0 0.679-0.010 1.014-0.031l-0.046 0.002h619.292c0.017 0 0.037 0 0.057 0 9.080 0 16.441-7.361 16.441-16.441 0 0 0 0 0 0v0z" />
<glyph unicode="&#xe926;" d="M292.011 216.69c-25.332-22.842-59.048-36.816-96.028-36.816s-70.696 13.974-96.156 36.93l0.128-0.114-11.947-238.421c-0.015-0.28-0.023-0.608-0.023-0.938 0-10.462 8.482-18.944 18.944-18.944 5.286 0 10.067 2.165 13.503 5.657l0.002 0.003 73.956 74.98 74.468-75.605c3.458-3.63 8.328-5.887 13.726-5.887 10.462 0 18.944 8.482 18.944 18.944 0 0.27-0.006 0.538-0.017 0.805l0.001-0.038z" />
<glyph unicode="&#xe927;" d="M369.323 338.831c0-94.979-76.741-171.975-171.406-171.975s-171.406 76.996-171.406 171.975c0 94.979 76.741 171.975 171.406 171.975s171.406-76.996 171.406-171.975z" />
<glyph unicode="&#xe928;" d="M327.964 338.831c0-72.043-58.224-130.446-130.048-130.446s-130.048 58.403-130.048 130.446c0 72.043 58.224 130.446 130.048 130.446s130.048-58.403 130.048-130.446z" />
<glyph unicode="&#xe929;" d="M28.444 609.28h967.111v-539.307c0-17.909-14.518-32.427-32.427-32.427v0h-902.258c-17.909 0-32.427 14.518-32.427 32.427v0 539.307z" />
<glyph unicode="&#xe92a;" d="M60.871 815.218h902.258c17.909 0 32.427-14.518 32.427-32.427v0-173.511h-967.111v174.080c0.32 17.662 14.713 31.858 32.422 31.858 0.002 0 0.004 0 0.005 0v0z" />
<glyph unicode="&#xe92b;" d="M174.649 753.778h675.271c8.797 0 15.929-7.132 15.929-15.929v-51.2c0-8.797-7.132-15.929-15.929-15.929h-675.271c-8.797 0-15.929 7.132-15.929 15.929v51.2c0 8.797 7.132 15.929 15.929 15.929z" />
<glyph unicode="&#xe92c;" d="M380.018 426.667l-51.2-170.667h-40.96l-31.289 113.778c-0.301 2.306-0.473 4.973-0.473 7.68s0.172 5.374 0.505 7.991l-0.032-0.311c0.307-2.221 0.483-4.788 0.483-7.396s-0.175-5.174-0.515-7.689l0.032 0.293-40.391-114.347h-40.391l-50.631 170.667h40.391l31.289-124.587c0.215-2.216 0.337-4.792 0.337-7.396s-0.122-5.179-0.362-7.72l0.025 0.325c-0.232 2.218-0.365 4.791-0.365 7.396s0.133 5.178 0.391 7.714l-0.026-0.319 40.96 124.587h36.978l31.289-125.156c0.193-2.215 0.303-4.792 0.303-7.396s-0.11-5.181-0.325-7.728l0.023 0.332c-0.203 2.216-0.319 4.792-0.319 7.396s0.116 5.18 0.343 7.724l-0.024-0.329 35.271 125.156zM641.707 426.667l-51.2-170.667h-40.96l-31.289 113.778c-0.301 2.306-0.473 4.973-0.473 7.68s0.172 5.374 0.505 7.991l-0.032-0.311c-1.926-6.009-4.046-11.091-6.534-15.954l0.276 0.594-34.133-113.778h-39.822l-51.2 170.667h40.391l31.858-124.587c0.197-2.215 0.309-4.792 0.309-7.396s-0.112-5.18-0.332-7.727l0.023 0.331c0 4.551 0 9.671 2.844 14.791l38.116 124.587h36.409l31.289-125.156c0.193-2.215 0.303-4.792 0.303-7.396s-0.11-5.181-0.325-7.728l0.023 0.332c-0.203 2.216-0.319 4.792-0.319 7.396s0.116 5.18 0.343 7.724l-0.024-0.329 36.978 125.156zM903.964 426.667l-50.631-170.667h-40.96l-32.427 113.778c-0.171 2.298-0.269 4.978-0.269 7.68s0.098 5.382 0.29 8.036l-0.021-0.356c-0.317-5.389-1.333-10.433-2.964-15.191l0.119 0.4-37.547-114.347h-39.822l-51.2 170.667h40.96l31.289-124.587c0.215-2.216 0.337-4.792 0.337-7.396s-0.122-5.179-0.362-7.72l0.025 0.325c-0.242 2.218-0.38 4.791-0.38 7.396s0.138 5.177 0.407 7.711l-0.027-0.315 40.96 124.587h34.702l30.72-125.156c0.193-2.215 0.303-4.792 0.303-7.396s-0.11-5.181-0.325-7.728l0.023 0.332c-0.185 2.214-0.29 4.793-0.29 7.396s0.105 5.181 0.312 7.731l-0.022-0.335 39.253 125.156z" />
<glyph unicode="&#xe92d;" d="M487.538 444.303h-430.649v370.347c0 0.001 0 0.002 0 0.003 0 34.361 27.694 62.253 61.978 62.575h368.671zM110.364 497.778h323.698v327.111h-315.164c-4.713 0-8.533-3.821-8.533-8.533v0zM967.111 444.303h-430.649v432.924h368.64c34.315-0.322 62.009-28.214 62.009-62.575 0-0.001 0-0.002 0-0.003v0zM589.938 497.778h323.698v316.871c0.11 0.514 0.173 1.104 0.173 1.708 0 4.713-3.821 8.533-8.533 8.533-0.061 0-0.121-0.001-0.182-0.002h-315.155zM487.538-32.995h-368.64c-0.001 0-0.002 0-0.003 0-34.047 0-61.684 27.439-62.006 61.41v370.946h430.649zM110.364 345.885v-317.44c0-4.713 3.821-8.533 8.533-8.533h315.164v325.973zM905.102-32.995h-368.64v432.356h430.649v-370.916c-0.322-34.001-27.96-61.44-62.006-61.44-0.001 0-0.002 0-0.003 0v0zM589.938 20.48h315.164c4.713 0 8.533 3.821 8.533 8.533v316.871h-323.698z" />
<glyph unicode="&#xe92e;" d="M834.56 334.507c-1.787 72.273-55.35 131.514-124.906 142.12l-0.818 0.103c-3.752 98.837-84.783 177.539-184.195 177.539-1.444 0-2.884-0.017-4.32-0.050l0.213 0.004c-0.6 0.007-1.308 0.011-2.017 0.011-80.826 0-149.794-50.77-176.752-122.16l-0.431-1.3c-84.969-12.014-149.828-83.544-151.322-170.513l-0.002-0.154c3.434-95.010 81.282-170.728 176.816-170.728 1.639 0 3.272 0.022 4.9 0.067l-0.24-0.005h319.147c78.871 2.474 142.093 66.093 143.926 144.893l0.003 0.174z" />
<glyph unicode="&#xe92f;" d="M600.747-24.462c0.003-0.171 0.005-0.372 0.005-0.574 0-17.595-14.263-31.858-31.858-31.858-0.202 0-0.403 0.002-0.604 0.006h-503.437c-0.002 0-0.003 0-0.005 0-17.595 0-31.858 14.263-31.858 31.858 0 0.2 0.002 0.4 0.006 0.599v-0.030 902.258c-0.003 0.169-0.005 0.369-0.005 0.569 0 17.595 14.263 31.858 31.858 31.858 0.002 0 0.004 0 0.005 0h504.035c0.171 0.003 0.372 0.005 0.574 0.005 17.595 0 31.858-14.263 31.858-31.858 0-0.202-0.002-0.403-0.006-0.604v0.030z" />
<glyph unicode="&#xe930;" d="M113.778 571.165c0 0.020 0 0.043 0 0.066 0 33.932 27.508 61.44 61.44 61.44 1 0 1.995-0.024 2.984-0.071l-0.14 0.005h284.444c33.19-0.951 59.733-28.084 59.733-61.416 0-0.008 0-0.017 0-0.025v0.001c0.002-0.169 0.003-0.369 0.003-0.569 0-33.932-27.508-61.44-61.44-61.44-0.001 0-0.002 0-0.003 0h-284.444c-0.169-0.002-0.369-0.003-0.569-0.003-34.247 0-62.009 27.762-62.009 62.009 0 0.001 0 0.002 0 0.003v0zM113.778 754.347c0 0.012 0 0.027 0 0.042 0 34.247 27.762 62.009 62.009 62.009 0.8 0 1.597-0.015 2.39-0.045l-0.114 0.003h284.444c33.191-0.95 59.736-28.083 59.736-61.416 0-0.208-0.001-0.416-0.003-0.624v0.032c0-33.932-27.508-61.44-61.44-61.44h-284.444c-0.339-0.007-0.738-0.011-1.138-0.011-33.932 0-61.44 27.508-61.44 61.44 0 0.004 0 0.007 0 0.011v-0.001z" />
<glyph unicode="&#xe931;" d="M221.867 754.347c0-22.936-18.593-41.529-41.529-41.529s-41.529 18.593-41.529 41.529c0 22.936 18.593 41.529 41.529 41.529s41.529-18.593 41.529-41.529z" />
<glyph unicode="&#xe932;" d="M221.867 571.165c0-22.936-18.593-41.529-41.529-41.529s-41.529 18.593-41.529 41.529c0 22.936 18.593 41.529 41.529 41.529s41.529-18.593 41.529-41.529z" />
<glyph unicode="&#xe933;" d="M991.004 120.605c-2.517 86.916-67.145 158.003-150.918 170.547l-0.975 0.12c-4.084 120.269-102.564 216.215-223.452 216.215-1.443 0-2.883-0.014-4.319-0.041l0.216 0.003c-1.031 0.017-2.249 0.026-3.468 0.026-98.354 0-182.135-62.399-213.913-149.768l-0.503-1.583c-102.408-13.756-180.879-99.488-183.178-203.997l-0.004-0.234c3.14-116.004 97.927-208.845 214.397-208.845 1.826 0 3.647 0.023 5.463 0.068l-0.269-0.005h385.138c96.908 1.9 174.851 80.441 175.786 177.404l0.001 0.090z" />
<glyph unicode="&#xe934;" d="M808.334 44.544c-80.957-63.262-184.187-101.439-296.334-101.439-267.064 0-483.561 216.498-483.561 483.561 0 154.916 72.848 292.818 186.157 381.318l1.070 0.805 4.892 3.698c80.51 62.114 182.826 99.556 293.888 99.556 267.060 0 483.556-216.495 483.556-483.556 0-155.999-73.871-294.744-188.54-383.164l-1.128-0.836z" />
<glyph unicode="&#xe935;" d="M141.141 333.085c-17.090-40.883-33.395-90.67-46.023-141.905l-1.537-7.372c12.038-20.224 23.718-37.343 36.32-53.716l-0.935 1.265c10.492-13.556 20.828-25.551 31.744-36.987l-0.171 0.18c15.49 75.132 36.745 141.128 64.154 203.818l-2.544-6.527c-31.785 5.682-59.456 20.364-81.051 41.284l0.041-0.039zM196.836 591.076c-18.83 48.834-32.659 105.571-38.94 164.563l-0.257 2.975c-23.057-24.445-43.735-51.604-61.378-80.804l-1.2-2.14c7.488-50.846 18.762-96.158 33.915-139.654l-1.602 5.282c17.858 22.387 41.365 39.553 68.382 49.433l1.079 0.345z" />
<glyph unicode="&#xe936;" d="M404.423 444.815c0-85.836-69.584-155.42-155.42-155.42s-155.42 69.584-155.42 155.42c0 85.836 69.584 155.42 155.42 155.42s155.42-69.584 155.42-155.42z" />
<glyph unicode="&#xe937;" d="M475.591 160.996c0.004 28.36 11.772 53.971 30.69 72.22l0.030 0.029c-54.7 30.404-101.867 65.462-143.867 105.855l0.222-0.213c-21.973-23.592-51.098-40.261-83.91-46.551l-0.968-0.154c25.070-26.245 51.957-50.247 80.644-71.999l1.674-1.217c33.771-25.666 71.929-49.313 112.267-69.213l4.128-1.841c-0.539 3.893-0.868 8.429-0.91 13.034v0.051zM833.877 148.935c-0.091 0-0.199 0-0.308 0-55.476 0-109.396 6.657-161.007 19.216l4.642-0.955c0-2.048 0.341-4.096 0.341-6.201 0-0.037 0-0.081 0-0.125 0-27.431-10.987-52.295-28.801-70.433l0.015 0.015c45.919-9.481 98.691-14.908 152.731-14.908 14.554 0 29.015 0.394 43.375 1.171l-2.001-0.086c24.062 22.801 45.6 47.805 64.441 74.83l1.038 1.572c-22.31-2.578-48.196-4.065-74.424-4.096h-0.044z" />
<glyph unicode="&#xe938;" d="M677.547 160.996c0-55.768-45.209-100.978-100.978-100.978s-100.978 45.209-100.978 100.978c0 55.768 45.209 100.978 100.978 100.978s100.978-45.209 100.978-100.978z" />
<glyph unicode="&#xe939;" d="M549.148 648.534c98.477 50.713 214.692 81.033 337.848 82.485l0.47 0.004c-24.923 30.93-52.69 57.956-83.373 81.353l-1.164 0.852c-97.797-6.438-188.679-29.003-272.37-65.079l5.334 2.046c-18.66-7.964-36.75-17.067-54.556-26.567-41.109 48.5-78.402 102.761-109.946 160.607l-2.523 5.054c-24.522-7.667-44.946-15.753-64.649-25.111l2.981 1.274c35.325-66.883 74.165-124.537 118.342-177.589l-1.321 1.632c-45.25-29.88-84.634-62.65-120.082-99.254l-0.181-0.188c32.201-12.392 58.493-34.168 76.198-61.95l0.374-0.628c32.528 31.979 68.378 60.779 106.924 85.775l2.644 1.607c63.648-66.446 132.437-126.843 206.118-180.972l4.371-3.064c5.535 22.708 17.852 41.975 34.654 56.074l0.162 0.133c-68.883 50.879-129.705 103.853-186.017 161.265l-0.237 0.242z" />
<glyph unicode="&#xe93a;" d="M913.92 411.421c0-59.225-48.011-107.236-107.236-107.236s-107.236 48.011-107.236 107.236c0 59.225 48.011 107.236 107.236 107.236s107.236-48.011 107.236-107.236z" />
<glyph unicode="&#xe93b;" d="M986.852 339.115c-12.035 6.016-18.015 9.217-23.961 12.471l5.7-2.857-1.479 0.91-17.067 9.102-3.129 1.707-15.189 8.476-3.755 2.048-17.749 10.183c-6.457-21.527-19.165-39.538-35.994-52.443l-0.244-0.18 21.276-12.174 4.779-2.674c6.542-3.698 13.141-7.339 19.797-10.98l1.934-1.081q23.893-13.084 49.038-25.941c5.944 17.263 11.52 38.559 15.629 60.372l0.47 3.002z" />
<glyph unicode="&#xe93c;" d="M404.423 444.815c0-85.836-69.584-155.42-155.42-155.42s-155.42 69.584-155.42 155.42c0 85.836 69.584 155.42 155.42 155.42s155.42-69.584 155.42-155.42z" />
<glyph unicode="&#xe93d;" d="M677.547 160.996c0-55.768-45.209-100.978-100.978-100.978s-100.978 45.209-100.978 100.978c0 55.768 45.209 100.978 100.978 100.978s100.978-45.209 100.978-100.978z" />
<glyph unicode="&#xe93e;" d="M147.342-2.844l-60.302 53.476 294.684 329.956 250.88-258.276 236.658 250.88 58.596-55.182-294.684-312.32-248.604 257.138-237.227-265.671z" />
<glyph unicode="&#xe93f;" d="M479.687 321.024c0-53.412-43.299-96.711-96.711-96.711s-96.711 43.299-96.711 96.711c0 53.412 43.299 96.711 96.711 96.711s96.711-43.299 96.711-96.711z" />
<glyph unicode="&#xe940;" d="M729.429 71.908c0-53.412-43.299-96.711-96.711-96.711s-96.711 43.299-96.711 96.711c0 53.412 43.299 96.711 96.711 96.711s96.711-43.299 96.711-96.711z" />
<glyph unicode="&#xe941;" d="M995.499 354.020c0-53.412-43.299-96.711-96.711-96.711s-96.711 43.299-96.711 96.711c0 53.412 43.299 96.711 96.711 96.711s96.711-43.299 96.711-96.711z" />
<glyph unicode="&#xe942;" d="M222.037 39.823c0-53.412-43.299-96.711-96.711-96.711s-96.711 43.299-96.711 96.711c0 53.412 43.299 96.711 96.711 96.711s96.711-43.299 96.711-96.711z" />
<glyph unicode="&#xe943;" d="M806.684 466.034l-180.907-183.239-182.556 183.239c-47.286 46.042-76.62 110.319-76.62 181.447 0 68.695 27.362 131 71.781 176.61l-0.054-0.055 4.892 4.836c46.201 47.174 110.551 76.419 181.73 76.419 69.314 0 132.15-27.732 178.019-72.705l-0.042 0.041 3.755-3.755c46.97-46.179 76.077-110.4 76.077-181.419 0-69.463-27.845-132.423-72.983-178.325l0.035 0.035z" />
<glyph unicode="&#xe944;" d="M469.902 697.856c-3.886-13.292-6.122-28.562-6.122-44.354 0-30.659 8.427-59.349 23.091-83.881l-0.414 0.747c8.373-13.871 18.217-25.779 29.563-36.062l0.133-0.119c10.8-10.265 23.068-19.14 36.422-26.245l0.897-0.436c12.443-6.191 26.909-11.291 42.054-14.566l1.239-0.225c7.036-1.142 15.147-1.794 23.41-1.794s16.373 0.652 24.283 1.909l-0.873-0.114-4.096 44.43c-0.586 4.546-4.313 8.057-8.908 8.305l-0.024 0.001c-3.559-0.407-7.683-0.64-11.861-0.64s-8.303 0.232-12.36 0.685l0.499-0.045c-11.006 2.456-20.691 5.922-29.779 10.411l0.766-0.342c-9.763 4.986-18.165 10.918-25.608 17.866l0.064-0.060c-7.844 7.127-14.531 15.336-19.874 24.429l-0.265 0.488c-7.283 11.531-12.328 25.191-14.172 39.847l-0.050 0.488c-1.249 6.414-1.963 13.79-1.963 21.333s0.714 14.919 2.079 22.064l-0.116-0.731 15.417-25.486c1.654-1.457 3.838-2.346 6.229-2.346s4.576 0.889 6.24 2.355l-0.010-0.009 20.764 5.348c2.52 1.734 4.15 4.602 4.15 7.851 0 1.691-0.442 3.28-1.217 4.655l0.025-0.048-51.2 83.57c-1.382 3.571-4.789 6.057-8.776 6.057-0.927 0-1.822-0.134-2.668-0.385l0.066 0.017-86.528-51.2c-1.457-1.654-2.346-3.838-2.346-6.229s0.889-4.576 2.355-6.24l-0.009 0.010 10.638-18.375c1.695-2.761 4.697-4.574 8.123-4.574 1.583 0 3.075 0.387 4.388 1.072l-0.053-0.025zM649.557 761.287c10.9-2.009 20.629-5.508 29.539-10.329l-0.525 0.26c19.182-9.475 34.694-23.89 45.24-41.606l0.271-0.492c7.157-11.74 12.184-25.568 14.163-40.36l0.059-0.543c1.276-6.508 2.006-13.992 2.006-21.646s-0.73-15.138-2.124-22.385l0.118 0.739-14.791 25.486c-1.67 2.872-4.733 4.772-8.24 4.772-1.515 0-2.947-0.354-4.217-0.985l0.055 0.025-18.375-11.378c-2.9-1.515-4.845-4.501-4.845-7.942 0-1.482 0.361-2.881 1-4.111l-0.023 0.050v-0.455l51.598-86.016c1.527-2.862 4.493-4.777 7.907-4.777 1.474 0 2.865 0.357 4.090 0.989l-0.050-0.023h0.512l85.959 51.598c1.579 1.601 2.554 3.801 2.554 6.229s-0.975 4.628-2.555 6.23l0.001-0.001-10.695 18.375c-1.662 1.435-3.844 2.309-6.229 2.309s-4.567-0.874-6.242-2.319l0.012 0.010-29.639-17.806c3.877 13.148 6.108 28.253 6.108 43.879 0 7.577-0.525 15.032-1.539 22.33l0.096-0.843c-2.666 23.438-10.255 44.657-21.712 63.237l0.378-0.659c-8.156 14.090-17.806 26.185-28.985 36.671l-0.085 0.079c-11.046 9.87-23.502 18.55-36.933 25.626l-1.011 0.486c-12.51 6.597-27.019 11.73-42.316 14.637l-0.977 0.154c-10.892 3.164-23.481 5.21-36.471 5.681l-0.279 0.008c-4.715-0.575-8.331-4.554-8.331-9.378 0-0.243 0.009-0.485 0.027-0.723l-0.002 0.032v-34.987c0.608-4.535 4.323-8.034 8.905-8.305l0.026-0.001c1.896 0.125 4.111 0.197 6.343 0.197 7.158 0 14.144-0.734 20.888-2.132l-0.663 0.115z" />
<glyph unicode="&#xe945;" d="M37.592 449.586l450.939 450.939c12.663 12.663 33.195 12.663 45.858 0l450.939-450.939c12.663-12.663 12.663-33.195 0-45.858l-450.939-450.939c-12.663-12.663-33.195-12.663-45.858 0l-450.939 450.939c-12.663 12.663-12.663 33.195 0 45.858z" />
<glyph unicode="&#xe946;" d="M619.52 340.765h161.564c3.203 0.301 5.689 2.976 5.689 6.232 0 0.009 0 0.018 0 0.027v-0.001 160.996c0.021 0.184 0.033 0.397 0.033 0.614 0 3.142-2.547 5.689-5.689 5.689-1.874 0-3.537-0.906-4.573-2.305l-0.011-0.015-44.373-44.373v-2.844c-1.025-1.006-2.431-1.626-3.982-1.626s-2.957 0.621-3.983 1.627l0.001-0.001-197.404 194.56c-1.025 1.006-2.431 1.626-3.982 1.626s-2.957-0.621-3.983-1.627l-50.061-50.061c-1.041-1.115-1.68-2.616-1.68-4.267s0.639-3.152 1.683-4.27l-0.003 0.004 193.991-193.991c1.041-1.115 1.68-2.616 1.68-4.267s-0.639-3.152-1.683-4.27l0.003 0.004-47.218-47.218c-0.916-1.081-1.474-2.493-1.474-4.034 0-3.173 2.362-5.795 5.424-6.203l0.032-0.003z" />
<glyph unicode="&#xe947;" d="M393.671 340.765h-161.564c-2.65 0.767-4.556 3.172-4.556 6.022 0 0.083 0.002 0.166 0.005 0.248v-0.012 160.996c0.045 3.107 2.575 5.609 5.688 5.609 1.551 0 2.957-0.621 3.984-1.628l-0.001 0.001 44.942-44.373v-2.844c1.025-1.006 2.431-1.626 3.982-1.626s2.957 0.621 3.983 1.627l-0.001-0.001 196.267 194.56c1.025 1.006 2.431 1.626 3.982 1.626s2.957-0.621 3.983-1.627l50.061-50.061c1.041-1.115 1.68-2.616 1.68-4.267s-0.639-3.152-1.683-4.27l0.003 0.004-193.991-193.991c-1.041-1.115-1.68-2.616-1.68-4.267s0.639-3.152 1.683-4.27l-0.003 0.004v-2.844l44.373-44.373c1.325-1.154 2.158-2.843 2.158-4.728 0-2.371-1.319-4.434-3.263-5.496l-0.033-0.016z" />
<glyph unicode="&#xe948;" d="M387.982 195.129l113.778-113.778c1.025-1.006 2.431-1.626 3.982-1.626s2.957 0.621 3.983 1.627l113.777 113.777c1.006 1.025 1.627 2.432 1.627 3.983 0 3.114-2.502 5.643-5.605 5.688h-66.564c-3.026 0.272-5.416 2.663-5.687 5.665l-0.002 0.024v273.067c0.018 0.171 0.029 0.369 0.029 0.569 0 3.142-2.547 5.689-5.689 5.689-0.010 0-0.020 0-0.030 0h-70.54c-3.456 0-6.258-2.802-6.258-6.258v0-273.067c0-3.142-2.547-5.689-5.689-5.689v0h-67.129c-3.107-0.045-5.609-2.575-5.609-5.688 0-1.551 0.621-2.957 1.628-3.984l-0.001 0.001z" />
<glyph unicode="&#xe949;" d="M605.867 496.071c-24.998-18.212-56.321-29.137-90.195-29.137-85.145 0-154.169 69.024-154.169 154.169 0 47.496 21.478 89.976 55.252 118.256l0.241 0.197c24.542 17.235 55.039 27.544 87.944 27.544 85.145 0 154.169-69.024 154.169-154.169 0-47.246-21.253-89.529-54.72-117.809l-0.228-0.188z" />
<glyph unicode="&#xe94a;" d="M477.867 622.934c0-27.334-22.159-49.493-49.493-49.493s-49.493 22.159-49.493 49.493c0 27.334 22.159 49.493 49.493 49.493s49.493-22.159 49.493-49.493z" />
<glyph unicode="&#xe94b;" d="M379.449 540.445l10.809-17.067 7.964-11.378c4.978 23.906 11.647 44.837 20.18 64.781l-0.838-2.204c-10.058 1.775-18.811 6.439-25.609 13.093l0.009-0.008c-4.48-12.71-8.803-28.551-12.099-44.764l-0.417-2.454zM411.876 669.583c-6.197 15.318-10.977 33.164-13.521 51.723l-0.133 1.183c-7.197-7.677-13.599-16.253-18.981-25.497l-0.361-0.672c2.509-15.84 6.472-30.002 11.853-43.443l-0.476 1.346c5.807 6.626 13.043 11.853 21.239 15.222l0.379 0.138zM464.782 589.369c-7.086-7.513-16.458-12.8-27.002-14.744l-0.304-0.047c8.048-8.195 16.586-15.831 25.596-22.892l0.573-0.433c10.699-7.925 22.819-15.309 35.59-21.572l1.388-0.615v3.982c0.267 9.213 4.627 17.357 11.318 22.709l0.060 0.046c-18.051 9.413-33.581 20.587-47.303 33.645l0.085-0.081zM613.831 529.067c-17.62 0.154-34.677 2.219-51.078 5.996l1.585-0.307c0-0.037 0-0.080 0-0.124 0-8.609-3.477-16.407-9.104-22.064l0.001 0.001c14.034-3.21 30.15-5.049 46.696-5.049 5.188 0 10.333 0.181 15.431 0.537l-0.687-0.038c7.666 7.196 14.577 15.010 20.72 23.421l0.329 0.473z" />
<glyph unicode="&#xe94c;" d="M564.338 533.049c0-17.595-14.263-31.858-31.858-31.858s-31.858 14.263-31.858 31.858c0 17.595 14.263 31.858 31.858 31.858s31.858-14.263 31.858-31.858z" />
<glyph unicode="&#xe94d;" d="M639.431 612.125c0-18.851-15.282-34.133-34.133-34.133s-34.133 15.282-34.133 34.133c0 18.851 15.282 34.133 34.133 34.133s34.133-15.282 34.133-34.133z" />
<glyph unicode="&#xe94e;" d="M523.947 687.218c30.806 15.080 67.037 23.899 105.328 23.899 0.571 0 1.141-0.002 1.711-0.006h-0.088c-7.687 9.818-16.496 18.265-26.356 25.339l-0.382 0.261c-31.019-1.908-59.885-9.048-86.421-20.55l1.656 0.639c-5.689 0-10.809-6.258-16.498-9.102-12.916 15.502-24.789 32.818-34.973 51.2l-0.867 1.706-19.342-7.396c10.964-21.652 23.261-40.311 37.389-57.401l-0.411 0.513c-14.346-9.404-26.827-19.717-38.071-31.243l-0.045-0.046c10.283-3.929 18.683-10.86 24.343-19.712l0.119-0.199c10.201 10.192 21.575 19.214 33.901 26.845l0.801 0.462c20.131-20.364 41.871-39.036 65.049-55.845l1.511-1.043c1.704 7.406 5.756 13.68 11.315 18.156l0.063 0.049c-22.031 16.725-41.546 34.255-59.525 53.253l-0.209 0.222zM657.067 592.214h-10.24l-5.689 3.413c-2.087-6.906-6.059-12.718-11.316-17.018l-0.062-0.049 6.827-3.982 6.258-3.413 15.929-7.964c1.691 5.096 3.459 11.778 4.887 18.585l0.233 1.326z" />
<glyph unicode="&#xe94f;" d="M477.867 622.934c0-27.334-22.159-49.493-49.493-49.493s-49.493 22.159-49.493 49.493c0 27.334 22.159 49.493 49.493 49.493s49.493-22.159 49.493-49.493z" />
<glyph unicode="&#xe950;" d="M564.338 533.049c0-17.595-14.263-31.858-31.858-31.858s-31.858 14.263-31.858 31.858c0 17.595 14.263 31.858 31.858 31.858s31.858-14.263 31.858-31.858z" />
<glyph unicode="&#xe951;" d="M581.973-50.631l46.080 49.493v131.982h-229.831v-131.982l46.080-49.493c2.696-3.212 6.439-5.467 10.698-6.241l0.111-0.017h113.778c5.231 0.196 9.87 2.57 13.066 6.236l0.019 0.022z" />
<glyph unicode="&#xe952;" d="M512 910.223c-1.005 0.011-2.192 0.017-3.38 0.017-185.057 0-335.076-150.018-335.076-335.076 0-13.638 0.815-27.085 2.398-40.296l-0.156 1.595c15.36-140.516 149.049-205.938 187.164-384 2.913-12.338 13.737-21.412 26.715-21.617h244.645c13.001 0.206 23.825 9.28 26.7 21.429l0.038 0.189c38.116 178.062 170.667 243.484 187.164 384 1.428 11.616 2.243 25.064 2.243 38.701 0 185.057-150.018 335.076-335.076 335.076-1.188 0-2.376-0.006-3.561-0.019l0.181 0.001z" />
<glyph unicode="&#xe953;" d="M651.947 723.058c-42.76-1.557-76.834-36.597-76.834-79.595 0-0.818 0.012-1.632 0.037-2.444l-0.003 0.119v-43.804h-120.036v43.804c0.012 0.508 0.018 1.107 0.018 1.707 0 44.301-35.913 80.213-80.213 80.213-0.006 0-0.013 0-0.019 0h0.001c-42.76-1.557-76.834-36.597-76.834-79.595 0-0.818 0.012-1.632 0.037-2.444l-0.003 0.119c-0.022-0.699-0.034-1.522-0.034-2.347 0-43.112 34.012-78.281 76.667-80.136l0.168-0.006h36.409v-341.333c0-11.311 9.169-20.48 20.48-20.48s20.48 9.169 20.48 20.48v0 341.333h122.88v-341.333c0-11.311 9.169-20.48 20.48-20.48s20.48 9.169 20.48 20.48v0 341.333h35.84c42.769 1.547 76.853 36.591 76.853 79.595 0 1.018-0.019 2.031-0.057 3.039l0.004-0.146c0.022 0.693 0.034 1.508 0.034 2.325 0 42.998-34.074 78.038-76.692 79.591l-0.142 0.004zM411.307 597.334h-38.684c-21.753 1.801-38.725 19.9-38.725 41.962 0 0.648 0.015 1.292 0.044 1.933l-0.003-0.091c-0.026 0.55-0.040 1.194-0.040 1.842 0 22.063 16.972 40.161 38.573 41.952l0.152 0.010c21.753-1.801 38.725-19.9 38.725-41.962 0-0.648-0.015-1.292-0.044-1.933l0.003 0.091zM654.791 597.334h-38.684v46.080c-0.181 1.406-0.284 3.032-0.284 4.683 0 21.365 17.32 38.684 38.684 38.684s38.684-17.32 38.684-38.684c0-1.65-0.103-3.277-0.304-4.873l0.019 0.19c0.168-1.402 0.263-3.025 0.263-4.671 0-21.827-16.839-39.721-38.235-41.4l-0.144-0.009z" />
<glyph unicode="&#xe954;" d="M395.947 39.823l232.107 44.942v25.6l-232.107-45.511v-25.031zM628.053 22.187v25.031l-232.107-46.080v-2.276l17.636-19.342 214.471 42.667z" />
<glyph unicode="&#xe955;" d="M930.702 460.8c0-275.342-332.8-497.209-405.049-542.151-3.887-2.413-8.603-3.844-13.653-3.844s-9.766 1.431-13.765 3.909l0.112-0.065c-72.249 44.942-405.049 266.809-405.049 542.151v331.093c0 0.002 0 0.004 0 0.006 0 14.253 11.394 25.844 25.57 26.162l0.030 0.001c258.844 6.827 199.111 120.604 393.102 120.604s134.258-113.778 393.102-120.604c14.206-0.319 25.6-11.91 25.6-26.163 0-0.002 0-0.004 0-0.007v0z" />
<glyph unicode="&#xe956;" d="M896 457.956c0-252.587-304.924-455.111-371.484-497.209-3.576-2.164-7.896-3.444-12.516-3.444s-8.94 1.28-12.625 3.506l0.11-0.061c-66.56 40.96-371.484 244.622-371.484 497.209v303.787c0 0.002 0 0.004 0 0.007 0 12.996 10.376 23.568 23.295 23.886l0.029 0.001c237.227 6.258 182.613 110.364 360.676 110.364s123.449-104.107 360.676-110.364c12.949-0.318 23.324-10.891 23.324-23.887 0-0.002 0-0.005 0-0.007v0z" />
<glyph unicode="&#xe957;" d="M628.622 202.525c-63.716 8.533-63.147 50.062-62.578 113.778h-120.604c0-66.56 0-108.089-62.578-113.778-15.894-1.333-28.511-13.755-30.139-29.441l-0.012-0.142h306.631c-1.904 15.899-14.684 28.289-30.601 29.575l-0.119 0.008z" />
<glyph unicode="&#xe958;" d="M247.467 708.836h515.413c10.368 0 18.773-8.405 18.773-18.773v-353.849c0-10.368-8.405-18.773-18.773-18.773h-515.413c-10.368 0-18.773 8.405-18.773 18.773v353.849c0 10.368 8.405 18.773 18.773 18.773z" />
<glyph unicode="&#xe959;" d="M269.653 678.685h470.471c5.027 0 9.102-4.075 9.102-9.102v-306.631c0-5.027-4.075-9.102-9.102-9.102h-470.471c-5.027 0-9.102 4.075-9.102 9.102v306.631c0 5.027 4.075 9.102 9.102 9.102z" />
<glyph unicode="&#xe95a;" d="M604.16 573.44l0.569-114.347-99.556-57.458v114.347l98.987 57.458z" />
<glyph unicode="&#xe95b;" d="M604.16 573.44l-98.987-57.458-99.556 57.458 98.987 57.458 99.556-57.458z" />
<glyph unicode="&#xe95c;" d="M505.173 515.983l-0.569-114.347-98.987 57.458v114.347l99.556-57.458z" />
<glyph unicode="&#xe95d;" d="M505.173 515.983v-114.347l98.987 57.458-98.987 56.889z" />
<glyph unicode="&#xe95e;" d="M504.604 514.845l0.569-0.569v-114.347h-0.569l-98.987 57.458 98.987 57.458z" />
<glyph unicode="&#xe95f;" d="M1017.856 372.054v115.314l-16.213 6.087-123.392 40.448-32.37 78.905 62.578 133.575-80.782 80.896-16.213-8.078-115.314-58.652-78.905 32.37-50.631 139.605h-115.314l-6.087-16.213-40.448-123.392-78.905-32.37-131.527 62.578-80.953-80.782 8.078-16.213 58.709-115.314-32.256-78.905-141.653-50.631v-115.314l16.213-6.087 123.392-40.448 32.37-78.905-62.578-133.575 80.896-80.896 16.213 8.078 115.314 58.652 78.905-32.37 50.631-139.605h115.314l6.087 16.213 40.448 123.392 78.905 32.37 133.575-62.578 80.896 80.896-8.078 16.213-58.652 115.314 32.37 78.905zM512 204.8c-122.534 0-221.867 99.333-221.867 221.867s99.333 221.867 221.867 221.867c122.534 0 221.867-99.333 221.867-221.867v0c0-122.534-99.333-221.867-221.867-221.867v0z" />
<glyph unicode="&#xe960;" d="M481.223 340.651h-204.174c-0.125-0.005-0.272-0.008-0.419-0.008-5.826 0-10.593 4.538-10.957 10.273l-0.002 0.032c0.002 1.538 0.381 2.987 1.048 4.26l-0.024-0.051 244.793 484.068c2.046 3.658 5.895 6.090 10.312 6.090 0.095 0 0.189-0.001 0.283-0.003h241.479c0.125 0.005 0.272 0.008 0.419 0.008 5.826 0 10.593-4.538 10.957-10.273l0.002-0.032c-0.022-2.157-0.768-4.136-2.006-5.709l-287.444-378.974h280.348c0.125 0.005 0.272 0.008 0.419 0.008 5.826 0 10.593-4.538 10.957-10.273l0.002-0.032c-0.030-2.703-1.157-5.136-2.956-6.881l-0.002-0.002-466.091-484.693c-4.38-2.56-35.499-28.444-20.252 10.752z" />
<glyph unicode="&#xe961;" d="M120.604 910.223h112.071v-32.427h-112.071zM946.062 877.796h18.204v-17.636h31.289v50.062h-49.493v-32.427zM80.213-22.186h-15.929v18.204h-35.84v-52.907h51.769v34.702zM964.267-5.689v-16.498h-18.204v-34.702h49.493v51.2h-31.289zM64.284 861.298v16.498h15.929v32.427h-51.769v-48.924h35.84z" />
<glyph unicode="&#xe962;" d="M208.213 736.711h467.058c9.111 0 16.498-7.386 16.498-16.498v-301.511c0-9.111-7.386-16.498-16.498-16.498h-467.058c-9.111 0-16.498 7.386-16.498 16.498v301.511c0 9.111 7.386 16.498 16.498 16.498z" />
<glyph unicode="&#xe963;" d="M525.084 617.814v-97.28l-83.058-48.924v97.849l83.058 48.356z" />
<glyph unicode="&#xe964;" d="M525.084 617.814l-83.058-48.924-83.627 48.924 83.627 48.924 83.058-48.924z" />
<glyph unicode="&#xe965;" d="M442.027 568.889v-97.28l-83.627 48.924v97.28l83.627-48.924z" />
<glyph unicode="&#xe966;" d="M352.711 550.116h467.058c9.111 0 16.498-7.386 16.498-16.498v-301.511c0-9.111-7.386-16.498-16.498-16.498h-467.058c-9.111 0-16.498 7.386-16.498 16.498v301.511c0 9.111 7.386 16.498 16.498 16.498z" />
<glyph unicode="&#xe967;" d="M669.582 431.787v-97.28l-83.058-48.924v97.28l83.058 48.924z" />
<glyph unicode="&#xe968;" d="M669.582 431.787l-83.058-48.924-83.627 48.924 83.627 48.924 83.058-48.924z" />
<glyph unicode="&#xe969;" d="M586.524 382.863v-97.28l-83.627 48.924v97.28l83.627-48.924z" />
<glyph unicode="&#xe96a;" d="M502.898 334.507l83.627 48.356v-97.28l-83.627 48.924z" />
<glyph unicode="&#xe96b;" d="M669.582 334.507l-83.058 48.356v-97.28l83.058 48.924z" />
<glyph unicode="&#xe96c;" d="M686.649 114.916c-49.493 7.964-51.2 43.804-51.2 101.262h-98.418c0-56.889 0-93.298-51.2-101.262-13.69-2.229-24.071-13.784-24.461-27.835l-0.001-0.040h250.311c-0.439 14.258-11.099 25.897-24.877 27.858l-0.155 0.018z" />
<glyph unicode="&#xe96d;" d="M288.427 910.223h112.071v-32.427h-112.071zM455.68 910.223h112.071v-32.427h-112.071zM623.502 910.223h112.071v-32.427h-112.071zM791.324 910.223h112.071v-32.427h-112.071zM121.742-22.186h112.071v-32.427h-112.071zM288.996-22.186h112.071v-32.427h-112.071zM456.818-22.186h112.071v-32.427h-112.071zM624.64-22.186h112.071v-32.427h-112.071zM791.893-22.186h112.071v-32.427h-112.071zM963.129 822.045h32.427v-112.071h-32.427zM963.129 654.791h32.427v-112.071h-32.427zM963.129 486.969h32.427v-112.071h-32.427zM963.129 319.716h32.427v-112.071h-32.427zM963.129 151.894h32.427v-112.071h-32.427zM28.444 823.183h32.427v-112.071h-32.427zM28.444 655.36h32.427v-112.071h-32.427zM28.444 488.107h32.427v-112.071h-32.427zM28.444 320.285h32.427v-112.071h-32.427zM28.444 153.031h32.427v-112.071h-32.427z" />
<glyph unicode="&#xe96e;" d="M678.769 140.479c-70.12-54.274-159.308-86.999-256.139-86.999-0.001 0-0.003 0-0.004 0v0c-126.996 0-252.58 57.016-335.565 165.56-141.783 185.119-106.783 449.884 78.684 591.729 69.829 54.23 158.724 86.938 255.259 86.938 0.296 0 0.593 0 0.889-0.001h-0.046c126.996 0 252.6-57.016 335.565-165.663 141.804-185.057 106.476-449.864-78.643-591.565z" />
<glyph unicode="&#xe96f;" d="M601.211 401.579c16.786-21.743 42.857-35.611 72.168-35.611 20.846 0 40.053 7.015 55.391 18.812l-0.214-0.158c2.068 1.577 3.686 3.502 5.571 5.222 40.673-28.652 72.335-49.889 88.248-60.723 4.71 12.206 7.844 23.777 11.203 36.024-31.103 23.293-55.754 42.672-80.010 62.517l4.275-3.391c3.847 9.673 6.079 20.882 6.079 32.612 0 20.658-6.92 39.699-18.568 54.933l0.16-0.218c-16.711 21.627-42.654 35.419-71.819 35.419-16.683 0-32.312-4.513-45.733-12.385l0.426 0.231c-50.085 45.039-95.702 88.198-140.222 132.459l0.18-0.179c154.767 83.231 264.745 71.045 264.745 71.045-18.431 23.143-38.395 43.601-60.227 61.905l-0.66 0.539c-65.27 10.076-166.666 8.95-282.522-52.675l-0.041 0.061h-0.020c-38.326 40.109-76.834 82.516-114.257 125.885l-3.667 4.347c-19.149-6.124-37.868-13.722-55.931-22.753 29.532-48.333 69.284-97.096 114.074-144.65-37.315-26.112-78.664-61.317-117.002-101.868-4.895-5.222-9.605-10.465-14.234-15.729-7.931 1.756-17.041 2.763-26.386 2.763-15.46 0-30.277-2.754-43.986-7.798l0.883 0.284c-38.257 82.493-35.185 148.746-29.143 182.927-16.609-17.388-32.113-35.676-45.466-55.173-9.974-40.796-12.82-99.615 16.63-170.496-16.337-21.192-26.185-48.119-26.185-77.345 0-29.179 9.815-56.066 26.325-77.538l-0.222 0.3c2.97-3.871 6.144-7.455 9.441-10.895-13.205-43.673-22.037-94.254-24.6-146.482l-0.058-1.486c3.994-5.448 3.994-9.83 7.967-15.135 20.255-25.969 45.834-50.524 70.41-70.349-0.573 8.746-0.9 18.961-0.9 29.252 0 59.413 10.891 116.283 30.784 168.722l-1.089-3.271c2.884-0.233 6.243-0.367 9.633-0.367 17.76 0 34.666 3.652 50.010 10.246l-0.824-0.315c10.813-9.523 22.118-19.128 34.202-28.897 35.836-28.681 76.164-54.751 119.021-76.569l4.002-1.849c-0.304-2.686-0.478-5.8-0.478-8.954 0-19.027 6.32-36.579 16.974-50.67l-0.153 0.211c15.589-20.022 39.696-32.779 66.782-32.779 19.316 0 37.117 6.488 51.343 17.403l-0.201-0.148c7.66 5.857 13.701 12.943 18.698 20.541 65.679-14.623 123.064-17.203 165.601-17.203 6.513 0 36.762 41.144 54.088 66.642-25.907-5.427-102.728-15.974-207.729 14.193-2.713 12.787-8.002 24.034-15.325 33.649l0.15-0.205c-26.665 34.959-75.428 42.516-111.759 19.128-43.439 23.915-80.766 49.022-115.671 77.024l1.556-1.207c-9.158 7.255-16.623 13.435-23.969 19.749l1.032-0.866c12.436 19.38 19.824 43.031 19.824 68.407 0 21.592-5.349 41.935-14.794 59.776l0.336-0.695c4.833 4.833 9.585 9.687 14.725 14.479 39.035 36.454 75.735 65.638 110.1 89.068-1.352 1.27-2.58 2.601-3.932 3.871 1.352-1.249 2.621-2.519 3.973-3.768l-0.041-0.020c52.695-48.742 108.585-94.925 161.526-136.192-13.988-29.655-11.796-65.802 9.503-93.635z" />
<glyph unicode="&#xe970;" d="M1016.32 12.377l-164.311 284.611v115.2h2.97c19.658 0 35.594 15.936 35.594 35.594s-15.936 35.594-35.594 35.594h-179.282c-19.658 0-35.594-15.936-35.594-35.594s15.936-35.594 35.594-35.594h2.97v-115.2l-164.311-284.611c-18.022-31.212-3.277-56.75 32.768-56.75h436.449c36.024 0 50.749 25.539 32.748 56.75z" />
<glyph unicode="&#xe971;" d="M880.968 134.888h-77.148c2.129-4.25 3.375-9.26 3.375-14.561 0-18.278-14.817-33.096-33.096-33.096-0.020 0-0.041 0-0.061 0h0.003c-18.292 0.042-33.104 14.88-33.104 33.178 0 5.268 1.228 10.25 3.413 14.674l-0.087-0.194h-94.597l-67.789-117.432h366.899l-67.809 117.432z" />
<glyph unicode="&#xe972;" d="M774.042 87.231c18.292 0.042 33.104 14.88 33.104 33.178 0 5.268-1.228 10.25-3.413 14.674l0.087-0.194h-59.556c-2.129-4.25-3.375-9.26-3.375-14.561 0-18.278 14.817-33.096 33.096-33.096 0.020 0 0.041 0 0.061 0h-0.003z" />
<glyph unicode="&#xe973;" d="M831.447 61.631c0-8.981-7.28-16.261-16.261-16.261s-16.261 7.28-16.261 16.261c0 8.981 7.28 16.261 16.261 16.261s16.261-7.28 16.261-16.261z" />
<glyph unicode="&#xe974;" d="M514.335 12.377l164.311 284.611v115.2h-2.97c-19.658 0-35.594 15.936-35.594 35.594s15.936 35.594 35.594 35.594h77.251v-185.467l-86.589-342.282h-119.235c-36.045 0-50.79 25.539-32.768 56.75z" />
<glyph unicode="&#xe975;" d="M57.458 358.969l450.56-292.409 458.524 293.547 57.458-67.129-515.982-332.231-508.018 332.231 57.458 65.991z" />
<glyph unicode="&#xe976;" d="M91.591 396.516l416.427 496.071 424.96-496.64-424.96-268.516-416.427 269.084z" />
<glyph unicode="&#xe977;" d="M508.018 892.587v-765.156l-416.427 269.084 416.427 496.071z" />
<glyph unicode="&#xe978;" d="M508.018 892.587v-765.156l424.96 268.516-424.96 496.64z" />
<glyph unicode="&#xe979;" d="M508.018 497.209l424.96-101.262-424.96-268.516v369.778z" />
<glyph unicode="&#xe97a;" d="M508.018 127.431l-416.427 269.084 416.427 100.693v-369.778z" />
<glyph unicode="&#xe97b;" d="M508.018-39.253l515.982 332.231-57.458 67.129-458.524-293.547v-105.813z" />
<glyph unicode="&#xe97c;" d="M65.422 357.263l442.596-287.289 450.56 287.858 56.889-65.422-507.449-327.111-499.484 326.542 56.889 65.422z" />
<glyph unicode="&#xe97d;" d="M98.418 393.671l409.6 488.107 418.133-488.676-418.133-263.964-409.6 264.533z" />
<glyph unicode="&#xe97e;" d="M508.018 881.778v-752.64l-409.6 264.533 409.6 488.107z" />
<glyph unicode="&#xe97f;" d="M508.018 881.778v-752.64l418.133 263.964-418.133 488.676z" />
<glyph unicode="&#xe980;" d="M508.018 493.227l418.133-100.124-418.133-263.964v364.089z" />
<glyph unicode="&#xe981;" d="M508.018 129.138l-409.6 264.533 409.6 99.556v-364.089z" />
<glyph unicode="&#xe982;" d="M508.018-34.702l507.449 327.111-56.889 65.422-450.56-287.858v-104.676z" />
<glyph unicode="&#xe983;" d="M928.427 262.827c12.104 11.968 19.6 28.575 19.6 46.933s-7.496 34.965-19.594 46.927l-113.784 113.784c-11.941 11.934-28.433 19.314-46.649 19.314s-34.708-7.381-46.649-19.315l-113.778-113.778c-11.832-12.092-19.134-28.66-19.134-46.933s7.301-34.841 19.145-46.945l94.992-94.992c3.171-3.272 5.125-7.739 5.125-12.662 0-0.149-0.002-0.297-0.005-0.444v0.022-176.356c-0.007-0.195-0.010-0.424-0.010-0.655 0-6.061 2.633-11.507 6.818-15.257l0.019-0.017 43.236-43.236c2.611-2.865 6.359-4.656 10.524-4.656s7.913 1.791 10.514 4.645l0.010 0.011 66.56 66.56c1.508 1.538 2.439 3.647 2.439 5.973s-0.931 4.435-2.441 5.975l-17.635 17.635c-1.894 1.676-3.082 4.113-3.082 6.827s1.188 5.151 3.072 6.818l0.010 0.008 17.636 17.636c1.543 1.628 2.492 3.832 2.492 6.258s-0.949 4.63-2.496 6.262l-17.632 17.632c-1.873 1.576-3.055 3.921-3.055 6.542s1.182 4.966 3.042 6.532l0.013 0.011 17.636 18.204c1.508 1.538 2.439 3.647 2.439 5.973s-0.931 4.435-2.441 5.975l-25.030 25.030v9.102zM768 443.165c20.736 0 37.547-16.81 37.547-37.547s-16.81-37.547-37.547-37.547c-20.736 0-37.547 16.81-37.547 37.547v0c0 20.736 16.81 37.547 37.547 37.547v0z" />
<glyph unicode="&#xe984;" d="M739.556-28.444c1.45-1.495 3.477-2.424 5.721-2.424 4.399 0 7.964 3.566 7.964 7.964 0 0.252-0.012 0.502-0.035 0.749l0.002-0.032v145.636c0.003 0.085 0.005 0.186 0.005 0.287 0 2.868-1.327 5.427-3.4 7.095l-0.018 0.014c-1.28 0.915-2.877 1.464-4.602 1.464-4.399 0-7.964-3.566-7.964-7.964 0-0.315 0.018-0.626 0.054-0.932l-0.004 0.037v-142.791c-0.304-0.841-0.48-1.811-0.48-2.822 0-2.481 1.059-4.715 2.75-6.275l0.006-0.005z" />
<glyph unicode="&#xe985;" d="M687.218 318.578h166.684c5.655 0 10.24-4.585 10.24-10.24v-1.707c0-5.655-4.585-10.24-10.24-10.24h-166.684c-5.655 0-10.24 4.585-10.24 10.24v1.707c0 5.655 4.585 10.24 10.24 10.24z" />
<glyph unicode="&#xe986;" d="M687.218 282.738h166.684c5.655 0 10.24-4.585 10.24-10.24v-1.707c0-5.655-4.585-10.24-10.24-10.24h-166.684c-5.655 0-10.24 4.585-10.24 10.24v1.707c0 5.655 4.585 10.24 10.24 10.24z" />
<glyph unicode="&#xe987;" d="M790.599 479.844c0-193.503-156.865-350.368-350.368-350.368s-350.368 156.865-350.368 350.368c0 193.503 156.865 350.368 350.368 350.368s350.368-156.865 350.368-350.368z" />
<glyph unicode="&#xe988;" d="M540.503 595.369c41.583-21.192 68.973-64.663 68.973-111.482-7.506 0-19.349-2.564-26.223 0-7.4 2.751-4.176 1.425-5.681 12.546-1.401 9.845-4.166 18.743-8.126 26.955l0.237-0.545c-16.144 34.602-52.678 56.667-90.887 54.103-36.837-2.475-69.516-27.906-81.786-62.606-6.678-18.886-3.419-38.93-9.358-57.949-6.201-19.494-17.97-35.749-33.425-47.366l-0.242-0.174c41.574-21.192 68.973-64.663 68.973-111.482-7.435 0-19.492-2.52-26.232 0-6.367 2.377-4.087 0.454-5.369 9.439-1.318 9.278-3.152 18.058-6.892 26.74-14.612 33.952-48.778 57.086-85.856 57.086-36.054 0-69.311-21.798-84.556-54.308-3.729-7.668-6.494-16.567-7.832-25.925l-0.057-0.485c-1.015-7.542 1.113-9.964-4.408-12.546-6.064-2.832-20.525 0-27.506 0 0 46.81 27.381 90.308 68.973 111.482-45.261 33.471-50.203 101.109-10.445 140.867 39.758 39.767 107.369 34.798 140.867-10.454 12.528 24.282 31.821 43.58 55.383 55.779l0.714 0.336c-70.62 52.224-32.439 168.301 55.376 168.301 87.85-0.018 125.988-116.059 55.385-168.31 10.525-5.36 5.352 2.769 0 0zM298.607 421.707c80.077 0 80.041 124.251 0 124.349s-80.068-124.349 0-124.349zM422.957 670.406c0-80.077 124.447-80.041 124.349 0-0.098 80.032-124.349 80.077-124.349 0zM468.039 259.158l220.89 220.908 219.465-219.465-220.908-220.899z" />
<glyph unicode="&#xe989;" d="M706.498 360.917c-3.161-1.585-4.746-1.585-9.492-3.161v-162.985c4.746-1.585 11.077-4.746 15.823-9.492l72.784 58.546c-1.576 3.161-1.576 9.492-1.576 14.238s1.576 12.662 3.161 17.408l-80.7 85.446zM586.236 275.471c3.161-4.746 4.746-12.662 4.746-18.984 0-4.746-1.585-11.077-3.161-15.823l72.793-58.546c3.161 3.161 9.492 6.331 14.238 9.492v166.146c-3.161 1.585-4.746 1.585-6.331 3.161l-82.285-85.446z" />
<glyph unicode="&#xe98a;" d="M687.505 546.056l-253.177-300.655 253.186-205.708 253.177 205.708-253.186 300.655zM825.175 215.34c-9.492 0-17.408 3.161-25.315 9.492l-72.793-60.131c1.585-3.161 1.585-6.331 1.585-11.077 0-22.154-17.408-41.138-41.138-41.138s-41.147 17.408-41.147 41.138c0 3.161 0 6.331 1.585 9.492l-77.539 60.131c-6.331-4.746-14.247-6.331-22.154-6.331-22.154 0-41.138 17.408-41.138 41.138 0 22.154 17.408 41.138 41.138 41.138 6.331 0 12.662-1.585 18.993-4.746l80.7 88.616c-1.585 4.746-3.161 11.077-3.161 17.408 0 22.154 17.408 41.138 41.147 41.138s41.138-17.408 41.138-41.138c0-6.331-1.585-14.238-4.746-18.984l79.115-88.616c6.331 3.161 14.238 4.746 20.569 4.746 22.154 0 41.147-17.408 41.147-41.138 1.576-23.73-17.417-41.138-37.986-41.138z" />
<glyph unicode="&#xe98b;" d="M704.284 533.618c0-216.747-267.378-391.396-325.404-426.667-3.114-2.115-6.956-3.377-11.093-3.377s-7.979 1.262-11.163 3.421l0.070-0.045c-58.027 35.271-324.836 209.92-324.836 426.667v261.12c0.308 11.185 9.295 20.172 20.451 20.479l0.029 0.001c207.644 5.689 159.858 95.004 315.733 95.004s107.52-89.316 314.596-95.004c11.31-0.291 20.441-9.225 21.047-20.425l0.002-0.055z" />
<glyph unicode="&#xe98c;" d="M676.409 531.343c0-199.111-245.191-358.969-298.098-391.396-2.889-1.905-6.432-3.039-10.24-3.039s-7.351 1.134-10.311 3.082l0.071-0.044c-53.476 32.427-298.098 192.284-298.098 391.396v236.658c0 10.368 8.405 18.773 18.773 18.773v0c190.578 7.964 149.049 89.884 289.564 89.884s98.987-81.92 288.996-87.040c0.002 0 0.005 0 0.008 0 10.482 0 19.017-8.339 19.333-18.744l0.001-0.029z" />
<glyph unicode="&#xe98d;" d="M357.831 446.578h613.262c0.349 0.022 0.757 0.034 1.168 0.034 10.608 0 19.279-8.296 19.878-18.755l0.002-0.053v-465.92c-0.601-10.511-9.272-18.808-19.881-18.808-0.411 0-0.819 0.012-1.224 0.037l0.056-0.003h-613.262c-0.191-0.006-0.414-0.010-0.639-0.010-10.714 0-19.506 8.226-20.404 18.707l-0.005 0.076v464.782c0.313 11.067 9.359 19.919 20.472 19.919 0.203 0 0.405-0.003 0.606-0.009l-0.030 0.001z" />
<glyph unicode="&#xe98e;" d="M356.693 446.578h615.538c0.35 0.023 0.758 0.037 1.17 0.037 9.981 0 18.142-7.789 18.738-17.62l0.003-0.052v-70.542h-655.36v68.267c0.599 9.883 8.76 17.672 18.741 17.672 0.412 0 0.82-0.013 1.225-0.039l-0.055 0.003zM902.827 175.787h-404.48c-9.102 0-15.929-4.551-15.929-9.102v-24.462c0-5.12 6.827-9.102 15.929-9.102h404.48c9.102 0 16.498 3.982 16.498 9.102v22.756c0 6.258-9.102 10.809-16.498 10.809zM902.827 278.187h-404.48c-9.102 0-15.929-3.982-15.929-9.102v-22.187c0-5.12 6.827-9.102 15.929-9.102h404.48c9.102 0 16.498 3.982 16.498 9.102v22.187c0 5.12-9.102 9.102-16.498 9.102zM902.827 60.303h-404.48c-9.102 0-15.929-3.982-15.929-9.102v-22.756c0-5.12 6.827-9.102 15.929-9.102h404.48c9.102 0 16.498 3.982 16.498 9.102v22.756c0 5.12-9.102 9.102-16.498 9.102z" />
<glyph unicode="&#xe98f;" d="M442.027 258.276c0-14.767-11.971-26.738-26.738-26.738s-26.738 11.971-26.738 26.738c0 14.767 11.971 26.738 26.738 26.738s26.738-11.971 26.738-26.738z" />
<glyph unicode="&#xe990;" d="M442.027 155.307c0-14.767-11.971-26.738-26.738-26.738s-26.738 11.971-26.738 26.738c0 14.767 11.971 26.738 26.738 26.738s26.738-11.971 26.738-26.738z" />
<glyph unicode="&#xe991;" d="M442.027 39.823c0-14.767-11.971-26.738-26.738-26.738s-26.738 11.971-26.738 26.738c0 14.767 11.971 26.738 26.738 26.738s26.738-11.971 26.738-26.738z" />
<glyph unicode="&#xe992;" d="M56.32 369.778l449.991-292.409 458.524 293.547 57.458-67.129-515.982-332.231-508.018 332.231 58.027 65.991z" />
<glyph unicode="&#xe993;" d="M89.884 407.325l416.427 496.071 424.96-496.64-424.96-268.516-416.427 269.084z" />
<glyph unicode="&#xe994;" d="M506.311 903.396v-765.156l-416.427 269.084 416.427 496.071z" />
<glyph unicode="&#xe995;" d="M506.311 903.396v-765.156l424.96 268.516-424.96 496.64z" />
<glyph unicode="&#xe996;" d="M506.311 508.018l424.96-101.262-424.96-268.516v369.778z" />
<glyph unicode="&#xe997;" d="M506.311 138.24l-416.427 269.084 416.427 100.693v-369.778z" />
<glyph unicode="&#xe998;" d="M506.311-28.444l515.982 332.231-57.458 67.129-458.524-293.547v-105.813z" />
<glyph unicode="&#xe999;" d="M769.138-50.062c249.173 178.631 254.862 280.462 254.862 312.32 0 45.511-4.551 163.84-123.449 170.667-3.149 0.273-6.815 0.429-10.516 0.429-56.192 0-104.001-35.89-121.756-85.997l-0.279-0.903c-17.213 52.098-65.462 89.028-122.338 89.028-2.993 0-5.962-0.102-8.904-0.304l0.398 0.022c-118.898-8.533-125.156-127.431-125.156-172.942 0-31.858 7.396-133.689 254.293-310.613z" />
<glyph unicode="&#xe99a;" d="M1024 280.463h-113.778c-3.352-0.087-6.27-1.866-7.941-4.511l-0.023-0.040-35.84-60.871c-0.791-1.41-2.277-2.348-3.982-2.348s-3.191 0.937-3.97 2.325l-0.012 0.023-54.044 97.849c-1.324 3.495-4.644 5.935-8.533 5.935s-7.209-2.44-8.512-5.872l-0.021-0.063-47.787-147.911c-0.662-1.748-2.322-2.967-4.267-2.967s-3.605 1.22-4.256 2.936l-0.010 0.031-43.236 99.556c-1.485 3.129-4.619 5.254-8.249 5.254s-6.764-2.125-8.225-5.199l-0.024-0.055-56.889-103.538c-1.51-3.059-4.608-5.127-8.188-5.127-0.121 0-0.242 0.002-0.363 0.007l0.017-0.001h-54.613c9.242-14.053 18.224-26.11 27.832-37.625l-0.526 0.648h47.218c3.453 0.213 6.396 2.208 7.939 5.069l0.025 0.051 40.391 75.093 56.889-124.587c1.324-3.495 4.644-5.935 8.533-5.935s7.209 2.44 8.512 5.872l0.021 0.063 56.889 166.684 48.356-94.436c1.583-2.821 4.555-4.696 7.964-4.696s6.382 1.875 7.941 4.65l0.024 0.046 56.889 92.16c1.694 2.685 4.612 4.465 7.952 4.551h89.897z" />
<glyph unicode="&#xe99b;" d="M57.458 356.694l450.56-292.409 458.524 293.547 57.458-66.56-515.982-332.8-508.018 332.231 57.458 65.991z" />
<glyph unicode="&#xe99c;" d="M91.591 394.24l416.427 496.071 424.96-496.64-424.96-268.516-416.427 269.084z" />
<glyph unicode="&#xe99d;" d="M508.018 890.311v-765.156l-416.427 269.084 416.427 496.071z" />
<glyph unicode="&#xe99e;" d="M508.018 890.311v-765.156l424.96 268.516-424.96 496.64z" />
<glyph unicode="&#xe99f;" d="M508.018 494.934l424.96-101.262-424.96-268.516v369.778z" />
<glyph unicode="&#xe9a0;" d="M508.018 125.156l-416.427 269.084 416.427 100.693v-369.778z" />
<glyph unicode="&#xe9a1;" d="M508.018-41.529l515.982 332.8-57.458 66.56-458.524-293.547v-105.813z" />
<glyph unicode="&#xe9a2;" d="M769.707 424.391l-254.293-356.124 254.293-103.538 254.293 103.538-254.293 356.124z" />
<glyph unicode="&#xe9a3;" d="M769.707 424.391l-254.293-356.124 254.293-103.538v459.662z" />
<glyph unicode="&#xe9a4;" d="M792.462 24.463c0.153-0.001 0.334-0.002 0.515-0.002 39.086 0 70.812 31.508 71.165 70.511v0.033c0.136 1.279 0.213 2.764 0.213 4.267s-0.077 2.987-0.229 4.45l0.015-0.183c-27.876 227.556-156.444 408.462-398.222 408.462s-381.724-155.307-409.031-409.031c-0.196-1.998-0.308-4.318-0.308-6.665 0-37.205 28.122-67.842 64.269-71.813l0.323-0.029z" />
<glyph unicode="&#xe9a5;" d="M462.507 458.525c-45.105 0.271-86.992 13.82-122.013 36.93l0.84-0.521 119.467-316.302 120.604 314.027c-33.793-21.255-74.844-33.938-118.845-34.133h-0.053z" />
<glyph unicode="&#xe9a6;" d="M688.356 684.374c0-124.733-101.116-225.849-225.849-225.849s-225.849 101.116-225.849 225.849c0 124.733 101.116 225.849 225.849 225.849s225.849-101.116 225.849-225.849z" />
<glyph unicode="&#xe9a7;" d="M966.542 201.615c0-131.243-150.926-246.329-192.057-257.707-2.096-0.623-4.505-0.982-6.997-0.982s-4.901 0.359-7.177 1.027l0.18-0.045c-41.131 11.378-192.114 126.919-192.114 257.707v157.525c-0.049 0.403-0.076 0.869-0.076 1.342 0 6.021 4.496 10.991 10.314 11.736l0.059 0.006c0.418 0.055 0.902 0.086 1.394 0.086s0.975-0.031 1.45-0.092l-0.056 0.006c122.539 4.38 96.256 56.889 183.751 56.889s61.269-52.508 183.751-56.889c0.422 0.053 0.91 0.084 1.405 0.084 6.003 0 10.962-4.47 11.73-10.263l0.007-0.060c0.055-0.418 0.086-0.902 0.086-1.394s-0.031-0.975-0.092-1.45l0.006 0.056z" />
<glyph unicode="&#xe9a8;" d="M765.269 184.093v220.956c83.172 0 56.889-45.909 170.667-50.29 7.053-0.461 12.655-6.083 13.083-13.102l0.002-0.039v-153.145zM765.269 184.093h-179.314c8.761-113.778 144.384-201.216 174.99-218.738l8.761-4.38z" />
<glyph unicode="&#xe9a9;" d="M594.66 353.053c113.778 4.38 87.495 51.996 170.667 51.996v-220.956h-179.371v158.151c0 8.647 4.324 10.809 8.704 10.809z" />
<glyph unicode="&#xe9aa;" d="M949.020 188.473l-183.751-4.38 4.38-223.118c30.663 21.959 166.286 113.778 179.371 227.499z" />
<glyph unicode="&#xe9ab;" d="M867.574 815.787h-711.148c-74.506 0-115.466-81.92-77.312-143.36s81.224-180.613 81.224-180.613c14.356-39.014 63.365-65.147 106.865-65.147h489.595c43.52 0 92.508 26.132 106.885 65.147 0 0 43.069 119.173 81.224 180.613s-2.826 143.36-77.332 143.36zM892.703 704.826c-41.062-66.13-84.951-187.023-86.794-192.143-5.366-14.561-21.033-24.576-38.851-24.576h-510.095c-17.818 0-33.505 10.015-38.994 24.945-1.7 4.751-45.609 125.645-86.651 191.775-3.287 5.122-5.24 11.373-5.24 18.080 0 6.015 1.571 11.663 4.324 16.557l-0.088-0.17c3.809 6.881 11.448 15.053 26.112 15.053h711.168c14.664 0 22.303-8.172 26.112-15.053 2.253-4.076 8.868-18.575-1.004-34.468z" />
<glyph unicode="&#xe9ac;" d="M867.574 815.787h-314.614v-61.44h314.614c14.664 0 22.303-8.172 26.112-15.053 2.253-4.055 8.888-18.555-1.004-34.468-41.062-66.13-84.951-187.023-86.794-192.143-5.366-14.561-21.033-24.576-38.851-24.576h-214.077v-61.44h203.837c43.52 0 92.508 26.132 106.885 65.147 0 0 43.069 119.173 81.224 180.613s-2.826 143.36-77.332 143.36z" />
<glyph unicode="&#xe9ad;" d="M430.080 344.747h163.84v-225.28h-163.84z" />
<glyph unicode="&#xe9ae;" d="M512 344.747h81.92v-225.28h-81.92z" />
<glyph unicode="&#xe9af;" d="M776.786-39.314l-37.908 132.444c-12.145 28.283-22.569 46.817-55.296 46.817h-343.163c-32.727 0-43.131-18.534-55.276-46.817l-37.908-132.444c-5.284-12.227 4.403-25.539 18.555-25.539h492.421c14.152 0 23.839 13.312 18.575 25.539z" />
<glyph unicode="&#xe9b0;" d="M776.786-39.314l-37.908 132.444c-12.145 28.283-22.569 46.817-55.296 46.817h-171.581v-204.8h246.211c14.152 0 23.839 13.312 18.575 25.539z" />
<glyph unicode="&#xe9b1;" d="M430.080 285.478c25.088-14.356 52.9-22.651 81.92-22.651 29.123 0 56.893 8.233 81.92 22.446v59.474h-163.84v-59.269z" />
<glyph unicode="&#xe9b2;" d="M767.078 918.187h-511.693c-35.267 0-33.382-40.694-25.068-50.074s68.342-84.582 68.342-353.853c0-115.487 98.468-210.473 212.582-210.473 115.139 0 212.582 95.109 212.582 210.473 0 269.271 57.856 343.409 68.342 353.853s12.431 50.074-25.088 50.074z" />
<glyph unicode="&#xe9b3;" d="M512 303.828c114.79 0.43 211.825 95.334 211.825 210.432 0 269.271 57.856 343.409 68.342 353.853 10.465 10.445 12.431 50.074-25.088 50.074h-255.078v-614.359z" />
<glyph unicode="&#xe9b4;" d="M1003.52 426.667c0-271.442-220.078-491.52-491.54-491.52s-491.5 220.078-491.5 491.52 220.037 491.52 491.5 491.52 491.54-220.078 491.54-491.52z" />
<glyph unicode="&#xe9b5;" d="M276.46 18.746c-225.3 130.068-302.449 418.161-172.401 643.441s418.14 302.51 643.441 172.421z" />
<glyph unicode="&#xe9b6;" d="M779.489 343.498l-43.438 43.438-189.563-189.563c-1.229 0.553-2.499 0.983-3.768 1.475v289.26h-61.44v-289.239c-1.27-0.492-2.54-0.922-3.768-1.475l-133.325 133.325c4.71 10.588 7.434 22.221 7.434 34.55-0.105 47.107-38.288 85.262-85.396 85.32h-0.006c-47.084-0.041-85.34-38.359-85.32-85.402s38.318-85.32 85.34-85.32h0.061c12.484 0.028 24.323 2.756 34.975 7.63l-0.528-0.216 133.325-133.325c-4.675-10.154-7.41-22.029-7.434-34.541v-0.008c0.082-47.095 38.243-85.25 85.333-85.32h0.068c47.112 0.093 85.273 38.283 85.32 85.397v0.004c0 12.268-2.744 23.88-7.434 34.447l189.563 189.563zM266.24 368.668c0.942 0 1.802-0.389 2.437-1.004l-4.854-4.854c-0.617 0.628-0.999 1.487-1.004 2.436v0.001c-0.020 1.618 1.823 3.42 3.42 3.42zM512 116.026c-0.944 0.001-1.798 0.384-2.417 1.003v0l2.417 2.437 2.437-2.437c-0.628-0.617-1.487-0.999-2.436-1.004h-0.001z" />
<glyph unicode="&#xe9b7;" d="M556.401 119.487c0-0.006 0-0.013 0-0.020 0-24.522-19.879-44.401-44.401-44.401s-44.401 19.879-44.401 44.401c0 24.515 19.867 44.389 44.379 44.401h0.022c24.515 0 44.38-19.866 44.401-44.38z" />
<glyph unicode="&#xe9b8;" d="M757.74 279.866c-47.022 0-85.299 38.257-85.34 85.32s38.236 85.361 85.32 85.402c47.114-0.058 85.297-38.212 85.402-85.31v-0.010c-0.023-47.128-38.198-85.332-85.313-85.402h-0.068zM757.76 368.668c-1.597 0-3.441-1.802-3.441-3.42 0-0.006 0-0.013 0-0.020 0-1.9 1.54-3.441 3.441-3.441s3.441 1.54 3.441 3.441c0 1.9-1.54 3.441-3.441 3.441v0z" />
<glyph unicode="&#xe9b9;" d="M802.161 365.247c0-0.006 0-0.013 0-0.020 0-24.522-19.879-44.401-44.401-44.401s-44.401 19.879-44.401 44.401c0 24.515 19.867 44.389 44.379 44.401h0.022c24.515 0 44.38-19.866 44.401-44.38zM310.641 365.247c0-0.006 0-0.013 0-0.020 0-24.522-19.879-44.401-44.401-44.401s-44.401 19.879-44.401 44.401c0 24.515 19.867 44.389 44.379 44.401h0.022c24.515 0 44.38-19.866 44.401-44.38z" />
<glyph unicode="&#xe9ba;" d="M613.847 633.515c0-55.439-44.913-100.352-100.352-100.352s-100.352 44.913-100.352 100.352 44.913 100.352 100.352 100.352c55.439 0 100.352-44.913 100.352-100.352z" />
<glyph unicode="&#xe9bb;" d="M513.495 795.307c-89.375 0-161.792-72.417-161.792-161.792s72.417-161.792 161.792-161.792 161.792 72.417 161.792 161.792-72.417 161.792-161.792 161.792zM513.495 533.163c-0.006 0-0.013 0-0.020 0-55.412 0-100.332 44.92-100.332 100.332 0 0.007 0 0.014 0 0.022v-0.001c0 55.439 44.913 100.352 100.352 100.352s100.352-44.913 100.352-100.352c0-55.439-44.913-100.352-100.352-100.352z" />
<glyph unicode="&#xe9bc;" d="M328.11 383.659l138.486 138.486c-19.765 8.556-36.226 21.515-48.695 37.706l-0.211 0.285-133.018-133.038c20.906-6.398 37.040-22.532 43.317-42.98l0.121-0.458zM696.689 383.659l-138.486 138.486c19.765 8.556 36.226 21.515 48.695 37.706l0.211 0.285 133.038-133.038c-20.916-6.389-37.060-22.526-43.337-42.98l-0.121-0.458z" />
<glyph unicode="&#xe9bd;" d="M512.864 480.555l-170.667 161.685h135.872l229.952-215.573-226.475-215.573h-139.371l170.741 161.685h-482.357c-17.515 0-30.56 19.776-30.56 37.333v44.576c0 17.515 13.045 25.92 30.56 25.92z" />
<glyph unicode="&#xe9be;" d="M95.339 666.134c15.211-14.777 35.995-23.887 58.907-23.887 23.798 0 45.3 9.829 60.668 25.648l0.020 0.020 1.952 1.931c61.617 60.357 146.072 97.604 239.227 97.604 95.706 0 182.229-39.315 244.301-102.676l0.057-0.058q2.133-2.133 4.267-4.352c59.496-61.204 96.182-144.855 96.182-237.074 0-8.789-0.333-17.5-0.988-26.121l0.070 1.147c16.292-7.642 29.465-19.65 38.329-34.523l0.22-0.399 0.203-0.331 0.192-0.331 86.549-150.315c29.611 62.816 46.896 136.442 46.896 214.106 0 141.722-57.559 270.001-150.574 362.735l-0.013 0.013c-93.583 92.333-222.192 149.367-364.123 149.397h-0.005c-0.658 0.003-1.436 0.005-2.214 0.005-141.229 0-269.133-57.049-361.925-149.36l0.022 0.022c-0.597-0.587-1.195-1.173-1.781-1.781-14.777-15.211-23.887-35.995-23.887-58.907 0-23.798 9.829-45.3 25.648-60.668l0.020-0.020c0.587-0.64 1.173-1.237 1.781-1.824zM469.333-48.149c0.458 15.766 4.986 30.384 12.563 42.957l-0.222-0.397 53.493 95.733c-22.66-5.368-48.677-8.445-75.413-8.445-96.062 0-182.844 39.73-244.812 103.653l-0.085 0.088c-0.593 0.608-1.173 1.189-1.761 1.762l-0.020 0.020c-15.211 14.777-35.995 23.887-58.907 23.887-23.798 0-45.3-9.829-60.668-25.648l-0.020-0.020c-0.597-0.587-1.195-1.173-1.781-1.781-14.777-15.211-23.887-35.995-23.887-58.907 0-23.798 9.829-45.3 25.648-60.668l0.020-0.020c93.597-92.346 222.232-149.384 364.189-149.397h0.003c6.528 0 13.024 0.171 19.531 0.384-4.979 10.297-7.888 22.394-7.888 35.17 0 0.573 0.006 1.145 0.018 1.716l-0.001-0.085z" />
<glyph unicode="&#xe9bf;" d="M1017.333-26.89l-107.669 181.333-107.669 186.997c-6.661 12.343-19.294 20.708-33.925 21.225l-0.069 0.002c-14.704-0.523-27.339-8.896-33.89-21.035l-0.105-0.213-107.669-175.659-107.669-192.672c-4.419-6.315-7.061-14.156-7.061-22.614 0-21.95 17.794-39.744 39.744-39.744 0.465 0 0.928 0.008 1.389 0.024l-0.067-0.002h430.656c0.399-0.014 0.867-0.023 1.337-0.023 21.95 0 39.744 17.794 39.744 39.744 0 8.467-2.648 16.316-7.161 22.764l0.085-0.128zM773.664 228.107h28.341l-11.339-164.331h-45.333l-5.664 164.331zM768.011-21.194c-18.775 0-33.995 15.22-33.995 33.995v0c0 18.775 15.22 33.995 33.995 33.995v0c18.775 0 33.995-15.22 33.995-33.995v0c0-18.775-15.22-33.995-33.995-33.995-0.004 0-0.008 0-0.011 0h0.001z" />
<glyph unicode="&#xe9c0;" d="M591.029 728.363c0.005-0.551 0.008-1.202 0.008-1.853 0-116.515-93.933-211.090-210.202-212.13l-0.099-0.001c-0.551-0.005-1.202-0.008-1.853-0.008-116.515 0-211.090 93.933-212.13 210.202l-0.001 0.099c-0.005 0.554-0.008 1.209-0.008 1.864 0 116.515 93.933 211.091 210.203 212.13l0.099 0.001h1.824c0.286 0.001 0.624 0.002 0.962 0.002 116.306 0 210.654-94.012 211.198-210.19v-0.116z" />
<glyph unicode="&#xe9c1;" d="M1017.344-16.224l-107.669 181.333-107.669 186.997c-6.661 12.343-19.294 20.708-33.925 21.225l-0.069 0.002c-14.707-0.524-27.345-8.896-33.9-21.036l-0.105-0.212-107.659-175.659-107.669-192.672c-4.419-6.315-7.061-14.156-7.061-22.614 0-21.95 17.794-39.744 39.744-39.744 0.465 0 0.928 0.008 1.389 0.024l-0.067-0.002h430.656c0.399-0.014 0.867-0.023 1.337-0.023 21.95 0 39.744 17.794 39.744 39.744 0 8.467-2.648 16.316-7.161 22.764l0.085-0.128zM773.675 238.774h28.341l-11.339-164.331h-45.333l-5.664 164.331zM768.011-10.528c-18.775 0-33.995 15.22-33.995 33.995v0c0 18.775 15.22 33.995 33.995 33.995v0c18.775 0 33.995-15.22 33.995-33.995v0c0-18.775-15.22-33.995-33.995-33.995v0z" />
<glyph unicode="&#xe9c2;" d="M479.947-80c-6.673 11.624-10.608 25.556-10.608 40.407 0 0.735 0.010 1.467 0.029 2.197l-0.002-0.108c0.458 15.766 4.986 30.384 12.563 42.957l108.034 193.267 107.584 175.52c12.699 21.73 34.333 37.058 59.732 40.996l0.471 0.060v30.645h-223.765l-155.115-215.467-155.115 215.467h-223.744v-531.275h483.467c-1.205 1.771-2.464 3.467-3.531 5.333z" />
<glyph unicode="&#xe9c3;" d="M930.702 460.8c0-275.342-332.8-497.209-405.049-542.151-3.887-2.413-8.603-3.844-13.653-3.844s-9.766 1.431-13.765 3.909l0.112-0.065c-72.249 44.942-405.049 266.809-405.049 542.151v331.093c0 0.002 0 0.004 0 0.006 0 14.253 11.394 25.844 25.57 26.162l0.030 0.001c258.844 6.827 199.111 120.604 393.102 120.604s134.258-113.778 393.102-120.604c14.206-0.319 25.6-11.91 25.6-26.163 0-0.002 0-0.004 0-0.007v0z" />
<glyph unicode="&#xe9c4;" d="M896 457.956c0-252.587-304.924-455.111-371.484-497.209-3.574-2.169-7.895-3.453-12.516-3.453s-8.941 1.284-12.624 3.515l0.109-0.061c-66.56 40.96-371.484 244.622-371.484 497.209v303.787c0 0.002 0 0.004 0 0.007 0 12.996 10.376 23.568 23.295 23.886l0.029 0.001c237.227 6.258 182.613 110.364 360.676 110.364s123.449-104.107 360.676-110.364c12.949-0.318 23.324-10.891 23.324-23.887 0-0.002 0-0.005 0-0.007v0z" />
<glyph unicode="&#xe9c5;" d="M747.52 918.187c-105.738 0-196.485-64.123-235.52-155.607-39.035 91.484-129.782 155.607-235.52 155.607-174.080 0-256-165.806-256-307.2 0-430.080 491.52-675.84 491.52-675.84s491.52 245.76 491.52 675.84c0 141.394-81.92 307.2-256 307.2z" />
<glyph unicode="&#xe9c6;" d="M512 365.227c-219.402 0-407.757 81.674-489.288 198.308 34.099-400.609 489.288-628.388 489.288-628.388s455.188 227.779 489.288 628.388c-81.531-116.634-269.885-198.308-489.288-198.308z" />
<glyph unicode="&#xe9c7;" d="M653.312 180.907c0-44.112-35.76-79.872-79.872-79.872s-79.872 35.76-79.872 79.872c0 44.112 35.76 79.872 79.872 79.872s79.872-35.76 79.872-79.872z" />
<glyph unicode="&#xe9c8;" d="M95.13 834.199s-28.795-103.26 90.808-206.479l37.806 48.415c-0.655 0.512-65.147 52.511-69.898 128.307-3.871 61.768 26.993 95.109 26.993 95.109-34.243-15.524-62.751-36.884-85.709-65.352zM978.862 745.725c18.268-79.749 11.53-158.372-20.623-230.728-57.774-130.028-194.314-235.52-394.854-305.070l20.111-58.040c172.769 59.884 304.271 146.289 382.689 252.641 24.392 63.119 39.383 131.953 39.383 206.459 0 44.483-10.179 91.341-26.706 134.738z" />
<glyph unicode="&#xe9c9;" d="M187.924 668.823c-115.118-115.118 27.525-317.153 143.36-433.009l21.729-21.729c5.559-5.557 13.238-8.994 21.719-8.994s16.16 3.437 21.719 8.994l43.438 43.438c5.786 5.594 9.378 13.426 9.378 22.097 0 16.966-13.754 30.72-30.72 30.72-8.671 0-16.503-3.592-22.088-9.37l-0.008-0.009-23.163-23.163c-159.293 159.293-210.534 284.733-144.814 350.454s191.16 14.479 350.454-144.814l-23.163-23.163c-5.786-5.594-9.378-13.426-9.378-22.097 0-16.966 13.754-30.72 30.72-30.72 8.671 0 16.503 3.592 22.088 9.37l0.008 0.009 43.438 43.438c5.557 5.559 8.994 13.238 8.994 21.719s-3.437 16.16-8.994 21.719l-21.729 21.729c-115.835 115.855-317.87 258.499-432.988 143.38z" />
<glyph unicode="&#xe9ca;" d="M896.711 180.534l59.467 37.778v400.889l-59.378-35.733-0.089-402.933z" />
<glyph unicode="&#xe9cb;" d="M812.356 635.823v-403.733l84.356-51.556v403.022l-84.356 52.267z" />
<glyph unicode="&#xe9cc;" d="M896.711 583.556l59.378 35.733-85.6 53.6-58.222-36.978 84.444-52.356z" />
<glyph unicode="&#xe9cd;" d="M127.289 583.556l-59.467 35.733v-400.978l59.467-37.778v403.022z" />
<glyph unicode="&#xe9ce;" d="M127.289 583.556v-403.022l84.356 51.556v403.733l-84.356-52.267z" />
<glyph unicode="&#xe9cf;" d="M211.644 635.823l-58.222 36.978-85.511-53.6 59.467-35.733 84.267 52.356z" />
<glyph unicode="&#xe9d0;" d="M513.6 455.023c-58.311 0-112.711 5.956-161.689 17.6-39.2 9.333-75.111 22.4-106.578 38.756-53.867 28-76 55.644-76.889 56.8-1.067 1.333-0.8 3.289 0.533 4.356s3.289 0.8 4.356-0.533c0.178-0.267 22.489-28 75.289-55.289 31.022-16.089 66.4-28.889 105.067-38.044 48.444-11.467 102.222-17.333 159.911-17.333 57.867 0 111.556 5.867 159.733 17.422 38.489 9.244 73.511 22.044 104 38.222 51.822 27.378 72.978 54.756 73.244 55.111 1.067 1.333 3.022 1.6 4.356 0.622 1.333-1.067 1.6-3.022 0.622-4.356-0.889-1.156-22.222-28.889-75.289-56.8-31.022-16.444-66.489-29.422-105.422-38.756-48.622-11.911-102.844-17.778-161.244-17.778z" />
<glyph unicode="&#xe9d1;" d="M513.6 442.578c-72.889 0-178.489 6.844-267.911 39.289-53.778 19.467-76 38.844-76.889 39.644-1.244 1.156-1.333 3.111-0.178 4.356s3.022 1.333 4.356 0.267c0.178-0.178 22.489-19.556 75.378-38.667 88.533-32 193.156-38.667 265.333-38.667 72.356 0 176.889 6.756 264.178 38.844 51.822 19.111 72.978 38.222 73.244 38.4 1.244 1.156 3.289 1.067 4.356-0.267 1.156-1.244 1.067-3.2-0.178-4.356-0.889-0.8-22.222-20.178-75.289-39.644-30.933-11.378-66.4-20.444-105.333-27.022-48.622-8.089-102.756-12.178-161.067-12.178z" />
<glyph unicode="&#xe9d2;" d="M513.6 430.134c-72.8 0-178.222 3.911-267.556 22.667-53.689 11.289-75.733 22.4-76.622 22.933-1.511 0.8-2.133 2.667-1.333 4.178s2.667 2.133 4.178 1.333c0.178-0.089 22.578-11.378 75.556-22.489 88.711-18.578 193.422-22.489 265.778-22.489s176.711 3.911 264 22.489c52.178 11.111 73.778 22.311 73.956 22.489 1.511 0.889 3.378 0.356 4.267-1.156s0.356-3.378-1.156-4.267c-0.089 0-0.089-0.089-0.178-0.089-0.889-0.444-22.222-11.644-75.022-22.933-87.822-18.756-193.067-22.667-265.867-22.667z" />
<glyph unicode="&#xe9d3;" d="M513.6 417.689c-252.089 0-342.578 21.956-343.467 22.222-1.689 0.444-2.667 2.133-2.222 3.733 0.444 1.689 2.133 2.667 3.733 2.222 0.889-0.178 90.844-22.044 341.956-22.044s337.778 21.778 338.667 22.044c1.689 0.356 3.378-0.711 3.733-2.4 0.356-1.6-0.622-3.2-2.133-3.644-0.8-0.089-88.089-22.133-340.267-22.133z" />
<glyph unicode="&#xe9d4;" d="M851.2 405.245h-680.267c-1.689 0-3.111 1.422-3.111 3.111s1.422 3.111 3.111 3.111h680.356c1.689 0 3.111-1.422 3.111-3.111s-1.422-3.111-3.2-3.111z" />
<glyph unicode="&#xe9d5;" d="M853.067 243.556c-0.978 0-1.867 0.444-2.489 1.244-0.178 0.267-21.6 28-73.6 55.289-30.578 16.089-65.511 28.889-103.911 38.044-48.089 11.467-101.689 17.333-159.378 17.333s-111.556-5.867-159.911-17.333c-38.667-9.156-74.044-21.956-105.067-38.044-52.8-27.378-75.022-55.022-75.2-55.289-1.067-1.333-3.022-1.6-4.356-0.533s-1.6 3.022-0.533 4.356c0.889 1.156 23.022 28.8 76.889 56.8 31.467 16.356 67.378 29.422 106.578 38.756 48.978 11.644 103.378 17.6 161.689 17.6s112.533-5.956 161.156-17.6c38.933-9.333 74.4-22.4 105.422-38.756 53.067-28 74.4-55.644 75.289-56.8 1.067-1.333 0.8-3.289-0.622-4.356-0.622-0.444-1.244-0.711-1.956-0.711z" />
<glyph unicode="&#xe9d6;" d="M853.067 289.778c-0.8 0-1.511 0.267-2.133 0.8-0.178 0.178-21.689 19.556-73.778 38.667-87.111 32-191.467 38.667-263.644 38.667s-176.8-6.667-265.333-38.667c-52.889-19.111-75.2-38.489-75.378-38.667-1.244-1.156-3.2-1.067-4.356 0.178s-1.067 3.2 0.178 4.356l0.089 0.089c0.889 0.8 23.111 20.178 76.889 39.644 49.333 17.867 135.911 39.289 267.911 39.289 58.222 0 112.444-4.089 160.978-12.267 38.933-6.489 74.311-15.556 105.333-27.022 52.978-19.556 74.4-38.844 75.289-39.733 1.244-1.156 1.333-3.111 0.178-4.356-0.533-0.622-1.333-0.978-2.222-0.978z" />
<glyph unicode="&#xe9d7;" d="M170.933 335.111c-1.689 0-3.111 1.333-3.111 3.111 0 1.156 0.622 2.222 1.689 2.756 0.889 0.444 23.022 11.644 76.622 22.933 89.244 18.756 194.756 22.667 267.556 22.667s177.956-3.911 265.867-22.667c52.889-11.289 74.133-22.489 75.022-22.933 1.511-0.8 2.133-2.667 1.422-4.178-0.8-1.511-2.667-2.133-4.178-1.422-0.089 0-0.089 0.089-0.178 0.089-0.178 0.089-21.778 11.378-73.956 22.489-87.289 18.578-191.822 22.489-264 22.489-72.444 0-177.422-3.911-266.222-22.578-52.8-11.111-74.844-22.222-75.111-22.4-0.444-0.267-0.889-0.444-1.422-0.356z" />
<glyph unicode="&#xe9d8;" d="M170.933 370.667c-1.689 0-3.111 1.422-3.111 3.111 0 1.422 0.978 2.667 2.311 3.022 0.889 0.178 91.378 22.222 343.467 22.222s339.378-22.044 340.267-22.222c1.689-0.533 2.578-2.222 2.044-3.911-0.444-1.6-2.044-2.489-3.644-2.133-0.889 0.178-87.556 22.044-338.667 22.044s-341.067-21.778-341.956-22.044c-0.267 0-0.444-0.089-0.711-0.089z" />
<glyph unicode="&#xe9d9;" d="M746.951 802.134v-261.689l-224.711-130.844v261.689l224.711 130.844z" />
<glyph unicode="&#xe9da;" d="M651.378 671.289c31.289 18.204 56.889 3.982 56.889-31.858-2.236-41.086-24.149-76.615-56.407-97.556l-0.482-0.293c-31.289-18.204-56.889-3.982-56.889 32.427 2.327 40.894 24.226 76.217 56.403 96.986l0.486 0.294z" />
<glyph unicode="&#xe9db;" d="M449.422 312.889v-261.689l-224.711-130.844v261.689l224.711 130.844z" />
<glyph unicode="&#xe9dc;" d="M336.782 168.96c31.289 17.067 56.889 3.413 56.889-32.427-2.43-41.031-24.281-76.488-56.413-97.556l-0.476-0.293c-31.289-18.204-56.889-3.413-56.889 32.427 2.43 41.031 24.281 76.488 56.413 97.556l0.476 0.293z" />
<glyph unicode="&#xe9dd;" d="M224.711 182.045v-261.689l-224.711 130.844v261.689l224.711-130.844z" />
<glyph unicode="&#xe9de;" d="M1024 312.889v-261.689l-224.711-130.844v261.689l224.711 130.844z" />
<glyph unicode="&#xe9df;" d="M654.222 585.956c64.491-27.539 113.42-80.933 134.366-146.8l0.461-1.68 11.378 5.689 56.889-32.996c-15.628 104.815-84.247 190.616-177.263 230.236l-1.937 0.733c-3.448 1.453-7.457 2.298-11.662 2.298-16.979 0-30.742-13.764-30.742-30.742 0-12.773 7.79-23.726 18.877-28.369l0.203-0.075z" />
<glyph unicode="&#xe9e0;" d="M799.289 180.907v-261.689l-224.711 130.844v262.827l224.711-130.844z" />
<glyph unicode="&#xe9e1;" d="M694.044 164.978c-29.582 17.067-53.476 2.844-53.476-30.72 2.152-38.826 22.713-72.431 53.033-92.454l0.442-0.275c29.582-17.067 53.476-3.413 53.476 30.72-2.152 38.826-22.713 72.431-53.033 92.454l-0.442 0.275z" />
<glyph unicode="&#xe9e2;" d="M523.378 22.756c-0.512-0.003-1.117-0.005-1.722-0.005-67.153 0-129.328 21.31-180.133 57.537l0.949-0.643c-9.162 5.568-15.188 15.494-15.188 26.828 0 17.28 14.009 31.289 31.289 31.289 7.771 0 14.88-2.833 20.351-7.522l-0.042 0.035c40.107-29.055 90.295-46.476 144.552-46.476 47.733 0 92.317 13.483 130.15 36.849l-1.067-0.613c4.691 2.938 10.391 4.68 16.498 4.68 17.352 0 31.418-14.066 31.418-31.418 0-11.245-5.907-21.11-14.788-26.661l-0.132-0.077c-45.849-27.528-101.172-43.81-160.297-43.81-0.646 0-1.291 0.002-1.935 0.006h0.099z" />
<glyph unicode="&#xe9e3;" d="M746.951 802.134l-223.573-130.844-225.28 130.844 225.28 130.844 224.142-130.844z" />
<glyph unicode="&#xe9e4;" d="M298.098 637.156c-75.751-50.116-126.895-132.18-134.194-226.534l-0.064-1.022 63.716 34.133v-2.844c12.156 46.924 36.882 86.964 70.361 117.596l0.182 0.164z" />
<glyph unicode="&#xe9e5;" d="M1024 312.889l-224.711-130.844-224.711 130.844 224.711 130.844 224.711-130.844zM449.422 312.889l-224.711-130.844-224.711 130.844 224.711 130.844 224.711-130.844z" />
<glyph unicode="&#xe9e6;" d="M522.24 671.289v-261.689l-224.142 130.844v261.689l224.142-130.844z" />
<glyph unicode="&#xe9e7;" d="M768 675.84c-125.724 0-227.556 32.427-227.556 72.818v-386.276c0-39.253 100.124-71.68 224.711-72.249h2.844c125.724 0 227.556 32.427 227.556 72.249v386.276c0-40.391-101.831-72.818-227.556-72.818z" />
<glyph unicode="&#xe9e8;" d="M995.556 748.658c0-40.391-101.831-72.818-227.556-72.818s-227.556 32.427-227.556 72.818 101.831 72.249 227.556 72.249 227.556-32.427 227.556-72.249z" />
<glyph unicode="&#xe9e9;" d="M942.649 754.347c0-25.6-78.507-46.080-174.649-46.080s-174.649 20.48-174.649 46.080 78.507 46.080 174.649 46.080 174.649-20.48 174.649-46.080z" />
<glyph unicode="&#xe9ea;" d="M768 743.538c-2.807 0.058-6.116 0.090-9.433 0.090-45.822 0-90.18-6.263-132.267-17.979l3.46 0.822c37.818-11.653 81.293-18.364 126.334-18.364 4.187 0 8.36 0.058 12.518 0.173l-0.613-0.013c3.546-0.102 7.719-0.16 11.906-0.16 45.042 0 88.516 6.711 129.478 19.187l-3.143-0.823c-38.626 10.894-82.985 17.157-128.807 17.157-3.317 0-6.625-0.033-9.926-0.098l0.493 0.008z" />
<glyph unicode="&#xe9eb;" d="M256 675.84c-125.724 0-227.556 32.427-227.556 72.818v-386.276c0-39.253 100.124-71.68 227.556-72.249 125.724 0 227.556 32.427 227.556 72.249v386.276c0-40.391-101.831-72.818-227.556-72.818z" />
<glyph unicode="&#xe9ec;" d="M483.556 748.658c0-40.391-101.831-72.818-227.556-72.818s-227.556 32.427-227.556 72.818 101.831 72.249 227.556 72.249 227.556-32.427 227.556-72.249z" />
<glyph unicode="&#xe9ed;" d="M430.649 754.347c0-25.6-78.507-46.080-174.649-46.080s-174.649 20.48-174.649 46.080 78.507 46.080 174.649 46.080 174.649-20.48 174.649-46.080z" />
<glyph unicode="&#xe9ee;" d="M256 743.538c-2.807 0.058-6.116 0.090-9.433 0.090-45.822 0-90.18-6.263-132.267-17.979l3.46 0.822c37.818-11.653 81.293-18.364 126.334-18.364 4.187 0 8.36 0.058 12.518 0.173l-0.613-0.013c3.546-0.102 7.719-0.16 11.906-0.16 45.042 0 88.516 6.711 129.478 19.187l-3.143-0.823c-38.626 10.894-82.985 17.157-128.807 17.157-3.317 0-6.625-0.033-9.926-0.098l0.493 0.008z" />
<glyph unicode="&#xe9ef;" d="M512 418.134c-125.724 0-227.556 32.427-227.556 72.818v-386.276c0-39.822 100.124-71.68 224.711-72.249h2.844c125.724 0 227.556 32.427 227.556 72.249v386.276c0-40.391-101.831-72.818-227.556-72.818z" />
<glyph unicode="&#xe9f0;" d="M739.556 490.951c0-40.391-101.831-72.818-227.556-72.818s-227.556 32.427-227.556 72.818 101.831 72.249 227.556 72.249 227.556-32.427 227.556-72.249z" />
<glyph unicode="&#xe9f1;" d="M686.649 496.64c0-25.6-78.507-46.080-174.649-46.080s-174.649 20.48-174.649 46.080 78.507 43.804 174.649 43.804 174.649-20.48 174.649-46.080z" />
<glyph unicode="&#xe9f2;" d="M512 483.556c-2.807 0.058-6.116 0.090-9.433 0.090-45.822 0-90.18-6.263-132.267-17.979l3.46 0.822c35.753-10.37 76.823-16.334 119.285-16.334 6.666 0 13.298 0.147 19.893 0.438l-0.938-0.033c3.546-0.102 7.719-0.16 11.906-0.16 45.042 0 88.516 6.711 129.478 19.187l-3.143-0.823c-36.304 9.589-77.983 15.095-120.948 15.095-6.081 0-12.136-0.11-18.164-0.329l0.872 0.025z" />
<glyph unicode="&#xe9f3;" d="M168.050 639.090c-0.017 0-0.037 0-0.057 0-5.498 0-9.956 4.457-9.956 9.956 0 0.020 0 0.040 0 0.060v-0.003c-0.097 63.082-51.208 114.193-114.281 114.29h-0.009c0 0 0 0 0 0-5.51 0-9.98 4.45-10.012 9.952v0.003c0 5.53 4.483 10.012 10.012 10.012v0c63.101 0.097 114.225 51.241 114.29 114.34v0.006c0 0.017 0 0.037 0 0.057 0 5.498 4.457 9.956 9.956 9.956 0.020 0 0.040 0 0.060 0h-0.003c0.017 0 0.037 0 0.057 0 5.498 0 9.956-4.457 9.956-9.956 0-0.020 0-0.040 0-0.060v0.003c0.097-63.082 51.208-114.193 114.281-114.29h0.009c0.017 0 0.037 0 0.057 0 5.498 0 9.956-4.457 9.956-9.956 0-0.020 0-0.040 0-0.060v0.003c0-0.017 0-0.037 0-0.057 0-5.498-4.457-9.956-9.956-9.956-0.020 0-0.040 0-0.060 0h0.003c-63.095-0.065-114.225-51.195-114.29-114.284v-0.006c-0.032-5.517-4.496-9.98-10.009-10.012h-0.003zM888.092-54.385c-4.43 0-8.021 3.591-8.021 8.021v0c-0.065 50.464-40.956 91.356-91.414 91.42h-0.006c0 0 0 0 0 0-4.41 0-7.989 3.559-8.021 7.961v0.003c0 4.43 3.591 8.021 8.021 8.021v0c50.477 0.032 91.388 40.943 91.42 91.417v0.003c0 4.43 3.591 8.021 8.021 8.021v0c4.43 0 8.021-3.591 8.021-8.021v0c0.032-50.477 40.943-91.388 91.417-91.42h0.003c4.43 0 8.021-3.591 8.021-8.021s-3.591-8.021-8.021-8.021v0c-50.464-0.065-91.356-40.956-91.42-91.414v-0.006c-0.032-4.406-3.611-7.964-8.021-7.964 0 0 0 0 0 0v0z" />
<glyph unicode="&#xe9f4;" d="M851.57 510.294c6.072-24.366 9.556-52.339 9.556-81.125 0-192.818-156.31-349.127-349.127-349.127s-349.127 156.31-349.127 349.127c0 164.032 113.123 301.643 265.611 339.075l2.394 0.497c24.365 6.072 52.337 9.555 81.122 9.555 164.031 0 301.641-113.121 339.074-265.608l0.497-2.394z" />
<glyph unicode="&#xe9f5;" d="M324.779 192.569c0.727-0.020 1.582-0.032 2.44-0.032 51.464 0 93.184 41.72 93.184 93.184s-41.72 93.184-93.184 93.184c-0.758 0-1.514-0.009-2.267-0.027l0.112 0.002c0.254 2.307 0.399 4.981 0.399 7.69 0 0.097 0 0.193-0.001 0.29v-0.015c-0.482 51.505-42.347 93.072-93.92 93.072-0.201 0-0.403-0.001-0.604-0.002h-69.829c-1.958-14.020-3.077-30.217-3.077-46.676 0-92.945 35.658-177.562 94.040-240.917l-0.225 0.248zM855.893 494.080c0 0.853 0 1.707-0.398 2.503-12.034 63.614-40.288 119.239-80.285 164.183l0.3-0.343c-4.584 1.929-10.075 3.69-15.744 4.986l-0.697 0.134c-8.446 2.503-18.149 3.943-28.189 3.943-55.268 0-100.344-43.639-102.649-98.34l-0.007-0.208c-3.347 0.411-7.293 0.678-11.289 0.738l-0.089 0.001c-0.002 0-0.005 0-0.008 0-54.575 0-98.816-44.241-98.816-98.816 0-42.728 27.119-79.122 65.084-92.909l0.688-0.218c8.927-3.602 19.28-5.692 30.12-5.692 0.231 0 0.462 0.001 0.692 0.003h115.449c47.089 35.865 88.358 75.293 124.868 118.846l0.971 1.19z" />
<glyph unicode="&#xe9f6;" d="M977.977 720.669c-35.783 59.563-119.467 82.773-236.373 65.365-45.487-6.524-85.507-15.502-124.327-27.243l5.884 1.53c33.166-11.605 61.9-26.358 88.165-44.44l-1.239 0.806c13.71 3.015 27.477 6.599 40.676 8.59 18.76 3.077 40.479 4.912 62.597 5.062l0.151 0.001c5.337 0.811 11.494 1.274 17.76 1.274 37.291 0 70.751-16.398 93.564-42.377l0.121-0.141c21.788-36.295 3.413-98.361-50.404-170.667-74.657-92.411-164.205-169.302-265.593-228.014l-4.572-2.443c-95.021-60.227-206.268-105.062-325.368-127.74l-5.952-0.943c-88.974-13.312-152.576 0-174.364 36.181s-3.413 98.418 50.404 170.382c6.656 8.932 8.306 13.312 15.872 22.3-1.491 12.228-2.341 26.385-2.341 40.74 0 18.345 1.389 36.365 4.067 53.961l-0.247-1.973c-23.62-23.674-45.455-49.154-65.271-76.206l-1.289-1.846c-70.485-94.265-89.6-179.029-53.874-238.592 33.19-44.064 85.412-72.255 144.218-72.255 7.315 0 14.529 0.436 21.616 1.284l-0.856-0.083c25.231 0.138 49.868 2.201 73.909 6.051l-2.741-0.362c133.485 24.875 252.306 72.471 358.003 139.007l-4.211-2.474c112.971 65.392 208.412 147.615 286.392 244.487l1.523 1.956c70.713 94.492 89.828 179.2 54.101 238.82z" />
<glyph unicode="&#xe9f7;" d="M1024 938.667h-1024l1024-1024v1024z" />
<glyph unicode="&#xe9f8;" d="M4.828-8.355l376.387 376.387c6.272 6.272 16.44 6.272 22.712 0l49.587-49.587c6.272-6.272 6.272-16.44 0-22.712l-376.387-376.387c-6.272-6.272-16.44-6.272-22.712 0l-49.587 49.587c-6.272 6.272-6.272 16.44 0 22.712z" />
<glyph unicode="&#xe9f9;" d="M5.025 281.6l232.236 232.236c6.272 6.272 16.44 6.272 22.712 0l49.587-49.587c6.272-6.272 6.272-16.44 0-22.712l-232.236-232.236c-6.272-6.272-16.44-6.272-22.712 0l-49.587 49.587c-6.272 6.272-6.272 16.44 0 22.712z" />
<glyph unicode="&#xe9fa;" d="M302.882 635.785l418.236-418.236 302.882 302.882v418.236h-418.236l-302.882-302.882z" />
<glyph unicode="&#xe9fb;" d="M292.506-8.038l232.236 232.236c6.272 6.272 16.44 6.272 22.712 0l49.587-49.587c6.272-6.272 6.272-16.44 0-22.712l-232.236-232.236c-6.272-6.272-16.44-6.272-22.712 0l-49.587 49.587c-6.272 6.272-6.272 16.44 0 22.712z" />
<glyph unicode="&#xe9fc;" d="M1024-85.333v1024l-512-512 512-512z" />
<glyph unicode="&#xe9fd;" d="M515.162 647.566l40.126 40.126c8.884 8.884 23.289 8.884 32.173 0l40.126-40.126c8.884-8.884 8.884-23.289 0-32.173l-40.126-40.126c-8.884-8.884-23.289-8.884-32.173 0l-40.126 40.126c-8.884 8.884-8.884 23.289 0 32.173z" />
<glyph unicode="&#xe9fe;" d="M659.78 792.159l40.126 40.126c8.884 8.884 23.289 8.884 32.173 0l40.126-40.126c8.884-8.884 8.884-23.289 0-32.173l-40.126-40.126c-8.884-8.884-23.289-8.884-32.173 0l-40.126 40.126c-8.884 8.884-8.884 23.289 0 32.173z" />
<glyph unicode="&#xe9ff;" d="M659.768 502.96l40.126 40.126c8.884 8.884 23.289 8.884 32.173 0l40.126-40.126c8.884-8.884 8.884-23.289 0-32.173l-40.126-40.126c-8.884-8.884-23.289-8.884-32.173 0l-40.126 40.126c-8.884 8.884-8.884 23.289 0 32.173z" />
<glyph unicode="&#xea00;" d="M804.362 647.554l40.126 40.126c8.884 8.884 23.289 8.884 32.173 0l40.126-40.126c8.884-8.884 8.884-23.289 0-32.173l-40.126-40.126c-8.884-8.884-23.289-8.884-32.173 0l-40.126 40.126c-8.884 8.884-8.884 23.289 0 32.173z" />
<glyph unicode="&#xea01;" d="M512 646.258c-201.387 0-364.658 56.889-364.658 131.982v-703.147c0-72.249 160.427-130.844 359.538-131.982h5.12c201.387 0 364.658 56.889 364.658 131.982v703.147c0-73.387-163.271-131.982-364.658-131.982z" />
<glyph unicode="&#xea02;" d="M876.658 778.24c0-73.387-163.271-131.982-364.658-131.982s-364.658 56.889-364.658 131.982 163.271 131.982 364.658 131.982 364.658-56.889 364.658-131.982z" />
<glyph unicode="&#xea03;" d="M791.893 789.049c0-46.649-125.724-84.196-279.893-84.196s-279.893 37.547-279.893 84.196 125.724 83.627 279.893 83.627 279.893-37.547 279.893-83.627z" />
<glyph unicode="&#xea04;" d="M512 768c-4.997 0.136-10.877 0.214-16.776 0.214-73.124 0-143.458-11.945-209.157-33.99l4.636 1.349c59.345-19.732 127.667-31.115 198.648-31.115 7.965 0 15.897 0.143 23.792 0.428l-1.142-0.033c5.534-0.173 12.042-0.272 18.573-0.272 72.55 0 142.255 12.18 207.182 34.607l-4.457-1.339c-59.896 19.333-128.807 30.478-200.321 30.478-7.376 0-14.725-0.119-22.044-0.354l1.068 0.027z" />
<glyph unicode="&#xea05;" d="M810.667 579.129c-18.773 0 3.413-14.222-63.147-17.067s-89.884-71.111-133.12-128.569c-44.436-44.163-103.608-73.543-169.496-80.119l-1.17-0.095c-44.314-14.603-81.006-42.281-106.511-78.418l-0.44-0.657c-7.576-15.828-22.436-27.106-40.117-29.551l-0.274-0.031c-15.36 0-48.924-4.551-48.924-4.551-15.347-3.387-28.834-8.087-41.546-14.149l1.155 0.496c4.551-18.773 42.098-10.809 42.098-10.809-9.123-9.418-18.776-18.169-28.969-26.267l-0.613-0.47c10.896-2.659 23.405-4.184 36.271-4.184 7.27 0 14.425 0.487 21.437 1.43l-0.819-0.090c24.462 0 43.236 23.324 88.178 47.787s148.48 0 164.978 0 40.96 43.236 46.649 56.889c4.551-30.72-46.649-113.778-46.649-113.778 39.964 2.681 74.301 24.547 94.141 56.381l0.295 0.508c4.551 5.689 18.773 35.271 20.48 32.427s9.102-10.809 11.947-9.671c5.211 4.639 9.877 9.665 14.033 15.102l0.189 0.258c28.592 40.279 50.892 87.358 64.185 138.083l0.668 3.002c3.982 13.653 3.982 63.147 38.116 83.627s38.684 39.253 38.684 40.96v2.844c-8.581 5.551-15.903 12.149-22.051 19.738l-0.136 0.173c-0.527 0.898-0.838 1.977-0.838 3.129s0.311 2.231 0.854 3.158l-0.016-0.030c5.745-10.559 15.414-18.372 26.999-21.546l0.307-0.072s11.947 34.133-6.827 34.133zM739.556 518.827h-3.413c-1.134-0.223-2.438-0.35-3.772-0.35-5.087 0-9.741 1.855-13.322 4.925l0.028-0.023c4.083 10.261 13.929 17.383 25.44 17.383 1.462 0 2.898-0.115 4.298-0.336l-0.155 0.020c0.689-1.781 1.089-3.843 1.089-5.998 0-6.937-4.139-12.908-10.083-15.577l-0.108-0.043zM771.413 518.827c5.363 12.6 11.652 23.457 19.075 33.419l-0.302-0.424c-7.489-10.194-14.157-21.796-19.469-34.119l-0.442-1.152zM791.893 547.84c-2.763-8.653-4.417-18.616-4.55-28.945l-0.001-0.068c-0.388 3.244-0.61 7-0.61 10.809s0.221 7.565 0.652 11.258l-0.043-0.449c-3.9-6.386-7.026-13.781-8.986-21.638l-0.116-0.548c2.503 10.415 6.829 19.555 12.665 27.521l-0.15-0.214zM694.613 283.307s-27.876-26.169-29.013-35.271 30.72-23.324 50.631-18.204c-7.283 14.521-14.599 32.206-20.73 50.434l-0.888 3.041z" />
<glyph unicode="&#xea06;" d="M512 646.258c-201.387 0-364.658 56.889-364.658 131.982v-703.147c0-72.249 160.427-130.844 359.538-131.982h5.12c201.387 0 364.658 56.889 364.658 131.982v703.147c0-73.387-163.271-131.982-364.658-131.982z" />
<glyph unicode="&#xea07;" d="M876.658 778.24c0-73.387-163.271-131.982-364.658-131.982s-364.658 56.889-364.658 131.982 163.271 131.982 364.658 131.982 364.658-56.889 364.658-131.982z" />
<glyph unicode="&#xea08;" d="M791.893 789.049c0-46.649-125.724-84.196-279.893-84.196s-279.893 37.547-279.893 84.196 125.724 83.627 279.893 83.627 279.893-37.547 279.893-83.627z" />
<glyph unicode="&#xea09;" d="M512 768c-4.997 0.136-10.877 0.214-16.776 0.214-73.124 0-143.458-11.945-209.157-33.99l4.636 1.349c59.345-19.732 127.667-31.115 198.648-31.115 7.965 0 15.897 0.143 23.792 0.428l-1.142-0.033c5.534-0.173 12.042-0.272 18.573-0.272 72.55 0 142.255 12.18 207.182 34.607l-4.457-1.339c-59.896 19.333-128.807 30.478-200.321 30.478-7.376 0-14.725-0.119-22.044-0.354l1.068 0.027z" />
<glyph unicode="&#xea0a;" d="M719.076 426.667v-92.729h-56.889c-6.628 0.165-12.512 3.212-16.47 7.93l-0.028 0.034v84.764h-76.8v-101.262c0.839-28.25 23.941-50.831 52.316-50.831 1.61 0 3.203 0.073 4.775 0.215l-0.203-0.015h84.764l14.791 7.396s-6.258-23.324-14.791-24.462h-135.396v-56.889h151.324c0.364-0.007 0.793-0.011 1.223-0.011 38.017 0 68.836 30.819 68.836 68.836 0 1.204-0.031 2.402-0.092 3.591l0.007-0.167v153.6zM542.151 426.667v27.876c0.276 1.761 0.433 3.792 0.433 5.859 0 17.677-11.518 32.664-27.458 37.866l-0.282 0.080c-8.48 2.764-18.245 4.418-28.378 4.55l-0.066 0.001c-0.701 0.033-1.523 0.052-2.349 0.052-22.164 0-41.179-13.484-49.288-32.696l-0.132-0.351-44.373-108.089-56.889 108.089c-8.069 19.488-26.919 32.956-48.919 32.996h-0.005c-0.149 0.001-0.326 0.002-0.502 0.002-10.239 0-20.039-1.878-29.074-5.309l0.563 0.188c-19.911-6.258-24.462-19.342-24.462-41.529v-188.302h66.56v126.862l35.84-89.316c9.568-22.25 31.3-37.547 56.604-37.547 0.1 0 0.2 0 0.3 0.001h-0.015c25.031 0 35.271 14.791 45.511 37.547l38.116 85.902v-122.311h67.129v157.582z" />
<glyph unicode="&#xea0b;" d="M512 646.258c-201.387 0-364.658 56.889-364.658 131.982v-703.147c0-72.249 160.427-130.844 359.538-131.982h5.12c201.387 0 364.658 56.889 364.658 131.982v703.147c0-72.818-163.271-131.982-364.658-131.982z" />
<glyph unicode="&#xea0c;" d="M876.658 778.24c0-72.818-163.271-131.982-364.658-131.982s-364.658 56.889-364.658 131.982 163.271 131.982 364.658 131.982 364.658-56.889 364.658-131.982z" />
<glyph unicode="&#xea0d;" d="M791.324 789.049c0-46.649-125.156-84.196-279.324-84.196s-279.893 37.547-279.893 83.627 125.156 84.196 279.893 84.196 279.324-37.547 279.324-83.627z" />
</font>
</defs>
</svg>
